<svg xmlns="http://www.w3.org/2000/svg" viewBox="0 0 540 960" width="540" height="960">
<defs>
<linearGradient id="bg" x1="0" y1="0" x2="0" y2="1"><stop offset="0" stop-color="#0a0814"/><stop offset="1" stop-color="#14102a"/></linearGradient>
<linearGradient id="brand" x1="0" y1="0" x2="1" y2="1"><stop offset="0" stop-color="#6366f1"/><stop offset=".5" stop-color="#8b5cf6"/><stop offset="1" stop-color="#a855f7"/></linearGradient>
<linearGradient id="card" x1="0" y1="0" x2="0" y2="1"><stop offset="0" stop-color="#1a1530"/><stop offset="1" stop-color="#0f0b22"/></linearGradient>
<linearGradient id="prog" x1="0" y1="0" x2="1" y2="0"><stop offset="0" stop-color="#6366f1"/><stop offset="1" stop-color="#a855f7"/></linearGradient>
</defs>
<rect width="540" height="960" fill="url(#bg)"/>

<rect x="0" y="0" width="540" height="64" fill="#0d0820"/>
<text x="20" y="40" font-family="Arial" font-size="13" font-weight="700" fill="#e4e4e7">9:41</text>
<g transform="translate(460, 24)">
<rect width="20" height="12" rx="2" fill="none" stroke="#a1a1aa" stroke-width="1.2"/>
<rect x="2" y="2" width="14" height="8" rx="1" fill="#22c55e"/>
<rect x="20" y="4" width="2" height="6" rx="1" fill="#a1a1aa"/>
</g>
<g transform="translate(490, 26)" fill="#a1a1aa">
<path d="M0 6 L 4 2 L 8 6 M 8 6 V 12" stroke="#a1a1aa" stroke-width="1.2" fill="none" stroke-linecap="round"/>
</g>
<g transform="translate(510, 28)" fill="#a1a1aa">
<rect x="0" y="0" width="14" height="10" rx="2" fill="#a1a1aa"/>
</g>

<g transform="translate(20, 84)">
<rect width="500" height="64" rx="20" fill="url(#card)" stroke="#1f1838"/>
<g transform="translate(20, 20)">
<rect width="24" height="24" rx="6" fill="url(#brand)"/>
<g transform="translate(12,12)" stroke="white" stroke-width="1.6" fill="none" stroke-linecap="round" stroke-linejoin="round">
<path d="M0 -7 V 2"/><path d="M-3 -2 L 0 2 L 3 -2"/><path d="M-7 6 V 8 a 1 1 0 0 0 1 1 H 6 a 1 1 0 0 0 1 -1 V 6"/>
</g>
</g>
<text x="56" y="32" font-family="Arial" font-size="14" font-weight="700" fill="#fafafa">Downloads</text>
<text x="56" y="50" font-family="Arial" font-size="11" fill="#a1a1aa">12 active - 8.7 MB/s</text>
<rect x="430" y="20" width="56" height="24" rx="12" fill="url(#brand)"/>
<text x="458" y="36" text-anchor="middle" font-family="Arial" font-size="10" fill="white" font-weight="700">+ ADD</text>
</g>

<g transform="translate(20, 168)" font-family="Arial">
<text font-size="12" font-weight="700" fill="#71717a" letter-spacing="2">ACTIVE</text>
<text x="500" y="0" text-anchor="end" font-size="11" fill="#22c55e" font-weight="600">3 downloading</text>

<g transform="translate(0, 16)">
<rect width="500" height="92" rx="16" fill="url(#card)" stroke="#1f1838"/>
<rect x="16" y="16" width="60" height="60" rx="10" fill="url(#brand)"/>
<g transform="translate(46, 46)" stroke="white" stroke-width="2.4" fill="none" stroke-linecap="round" stroke-linejoin="round">
<polygon points="-6,-10 12,0 -6,10"/>
</g>
<text x="92" y="32" font-size="14" font-weight="700" fill="#fafafa">youtube-dl-demo.mp4</text>
<text x="92" y="50" font-size="11" fill="#a1a1aa">YouTube - 1080p - yt-dlp</text>
<text x="92" y="66" font-size="10" fill="#71717a">142 MB - 8.2 MB/s - 18s left</text>
<rect x="92" y="76" width="380" height="3" rx="2" fill="#0d0820"/>
<rect x="92" y="76" width="304" height="3" rx="2" fill="url(#prog)"/>
<text x="476" y="84" text-anchor="end" font-size="11" font-weight="700" fill="#22c55e">80%</text>
</g>

<g transform="translate(0, 120)">
<rect width="500" height="92" rx="16" fill="url(#card)" stroke="#1f1838"/>
<rect x="16" y="16" width="60" height="60" rx="10" fill="#7c3aed"/>
<text x="46" y="58" text-anchor="middle" font-size="24" font-weight="800" fill="white">♫</text>
<text x="92" y="32" font-size="14" font-weight="700" fill="#fafafa">Midnight_City.flac</text>
<text x="92" y="50" font-size="11" fill="#a1a1aa">SoundCloud - FLAC 1411 kbps</text>
<text x="92" y="66" font-size="10" fill="#71717a">26.4 MB / 28.4 MB - 2.1 MB/s</text>
<rect x="92" y="76" width="380" height="3" rx="2" fill="#0d0820"/>
<rect x="92" y="76" width="354" height="3" rx="2" fill="url(#prog)"/>
<text x="476" y="84" text-anchor="end" font-size="11" font-weight="700" fill="#22c55e">93%</text>
</g>

<g transform="translate(0, 224)">
<rect width="500" height="92" rx="16" fill="url(#card)" stroke="#1f1838"/>
<rect x="16" y="16" width="60" height="60" rx="10" fill="#0ea5e9"/>
<g transform="translate(46, 46)" stroke="white" stroke-width="2.4" fill="none" stroke-linecap="round" stroke-linejoin="round">
<circle r="10"/><path d="M-10 0a10 10 0 0 1 10-10M0 -10a10 10 0 0 1 10 10"/>
</g>
<text x="92" y="32" font-size="14" font-weight="700" fill="#fafafa">ubuntu-24.04.iso</text>
<text x="92" y="50" font-size="11" fill="#a1a1aa">releases.ubuntu.com - 8 conn</text>
<text x="92" y="66" font-size="10" fill="#71717a">3.2 GB / 5.7 GB - 24.8 MB/s</text>
<rect x="92" y="76" width="380" height="3" rx="2" fill="#0d0820"/>
<rect x="92" y="76" width="212" height="3" rx="2" fill="url(#prog)"/>
<text x="476" y="84" text-anchor="end" font-size="11" font-weight="700" fill="#22c55e">56%</text>
</g>
</g>

<g transform="translate(20, 524)" font-family="Arial">
<text font-size="12" font-weight="700" fill="#71717a" letter-spacing="2">QUEUED</text>
<g transform="translate(0, 16)">
<rect width="500" height="60" rx="14" fill="url(#card)" stroke="#1f1838"/>
<rect x="12" y="12" width="36" height="36" rx="8" fill="#dc2626"/>
<text x="30" y="36" text-anchor="middle" font-size="11" font-weight="800" fill="white">ZIP</text>
<text x="60" y="26" font-size="12" font-weight="600" fill="#fafafa">project-archive.zip</text>
<text x="60" y="42" font-size="10" fill="#a1a1aa">cdn.example.com - 890 MB</text>
<rect x="430" y="18" width="56" height="24" rx="6" fill="#0d0820"/>
<text x="458" y="34" text-anchor="middle" font-size="10" fill="#a1a1aa" font-weight="600">WAIT</text>
</g>
<g transform="translate(0, 88)">
<rect width="500" height="60" rx="14" fill="url(#card)" stroke="#1f1838"/>
<rect x="12" y="12" width="36" height="36" rx="8" fill="#16a34a"/>
<text x="30" y="36" text-anchor="middle" font-size="14" fill="white">⚲</text>
<text x="60" y="26" font-size="12" font-weight="600" fill="#fafafa">debian-12-netinst.iso.torrent</text>
<text x="60" y="42" font-size="10" fill="#a1a1aa">DHT - 24 peers - 624 MB</text>
<rect x="430" y="18" width="56" height="24" rx="6" fill="#0d0820"/>
<text x="458" y="34" text-anchor="middle" font-size="10" fill="#a1a1aa" font-weight="600">WAIT</text>
</g>
</g>

<g transform="translate(20, 720)" font-family="Arial">
<text font-size="12" font-weight="700" fill="#71717a" letter-spacing="2">COMPLETED TODAY</text>
<g transform="translate(0, 16)">
<rect width="500" height="80" rx="14" fill="url(#card)" stroke="#1f1838" opacity=".7"/>
<rect x="12" y="12" width="36" height="36" rx="8" fill="#f59e0b"/>
<text x="30" y="36" text-anchor="middle" font-size="11" font-weight="800" fill="white">PDF</text>
<text x="60" y="26" font-size="12" font-weight="600" fill="#fafafa">design-specs-2026.pdf</text>
<text x="60" y="42" font-size="10" fill="#a1a1aa">docs.company.com</text>
<rect x="60" y="56" width="380" height="3" rx="2" fill="#22c55e"/>
<text x="476" y="68" text-anchor="end" font-size="11" font-weight="700" fill="#22c55e">DONE - 18 MB</text>
</g>
</g>

<rect x="0" y="884" width="540" height="76" fill="#0d0820"/>
<g transform="translate(0, 884)" font-family="Arial" font-size="10" fill="#a1a1aa">
<g transform="translate(45, 22)">
<rect width="40" height="4" rx="2" fill="url(#brand)"/>
<rect x="10" y="14" width="20" height="20" rx="4" fill="none" stroke="url(#brand)" stroke-width="2"/>
<path d="M14 24 V 18 M14 28 L 11 25 L 17 25" stroke="url(#brand)" stroke-width="1.8" fill="none" stroke-linecap="round" stroke-linejoin="round"/>
<text x="20" y="56" text-anchor="middle" font-weight="700" fill="#c4b5fd">Downloads</text>
</g>
<g transform="translate(135, 22)">
<circle cx="20" cy="20" r="9" fill="none" stroke="#71717a" stroke-width="1.8"/>
<circle cx="20" cy="20" r="3" fill="#71717a"/>
<text x="20" y="56" text-anchor="middle">Torrents</text>
</g>
<g transform="translate(225, 22)">
<polygon points="8,12 32,22 8,32" fill="none" stroke="#71717a" stroke-width="1.8" stroke-linejoin="round"/>
<text x="20" y="56" text-anchor="middle">Videos</text>
</g>
<g transform="translate(315, 22)">
<circle cx="14" cy="28" r="4" fill="none" stroke="#71717a" stroke-width="1.8"/>
<circle cx="26" cy="24" r="4" fill="none" stroke="#71717a" stroke-width="1.8"/>
<text x="20" y="56" text-anchor="middle">Music</text>
</g>
<g transform="translate(405, 22)">
<circle cx="20" cy="20" r="9" fill="none" stroke="#71717a" stroke-width="1.8"/>
<line x1="26" y1="26" x2="32" y2="32" stroke="#71717a" stroke-width="1.8" stroke-linecap="round"/>
<text x="20" y="56" text-anchor="middle">Search</text>
</g>
<g transform="translate(495, 22)">
<circle cx="20" cy="20" r="3" fill="none" stroke="#71717a" stroke-width="1.8"/>
<circle cx="20" cy="20" r="9" fill="none" stroke="#71717a" stroke-width="1.8"/>
<text x="20" y="56" text-anchor="middle">More</text>
</g>
</g>
</svg>
