<svg xmlns="http://www.w3.org/2000/svg" viewBox="0 0 540 960" width="540" height="960">
<defs>
<linearGradient id="bg" x1="0" y1="0" x2="0" y2="1"><stop offset="0" stop-color="#0a0814"/><stop offset="1" stop-color="#14102a"/></linearGradient>
<linearGradient id="brand" x1="0" y1="0" x2="1" y2="1"><stop offset="0" stop-color="#6366f1"/><stop offset=".5" stop-color="#8b5cf6"/><stop offset="1" stop-color="#a855f7"/></linearGradient>
<linearGradient id="card" x1="0" y1="0" x2="0" y2="1"><stop offset="0" stop-color="#1a1530"/><stop offset="1" stop-color="#0f0b22"/></linearGradient>
<linearGradient id="videoBg" x1="0" y1="0" x2="1" y2="1"><stop offset="0" stop-color="#1e1b4b"/><stop offset=".5" stop-color="#4c1d95"/><stop offset="1" stop-color="#831843"/></linearGradient>
</defs>
<rect width="540" height="960" fill="url(#bg)"/>
<rect x="0" y="0" width="540" height="64" fill="#0d0820"/>
<text x="20" y="40" font-family="Arial" font-size="13" font-weight="700" fill="#e4e4e7">9:41</text>
<g transform="translate(460, 24)"><rect width="20" height="12" rx="2" fill="none" stroke="#a1a1aa" stroke-width="1.2"/><rect x="2" y="2" width="14" height="8" rx="1" fill="#22c55e"/></g>

<g transform="translate(20, 84)">
<text font-family="Arial" font-size="22" font-weight="800" fill="#fafafa">Big Buck Bunny</text>
<text y="22" font-family="Arial" font-size="12" fill="#a1a1aa">1080p - 658 MB - Streaming</text>
</g>

<g transform="translate(20, 140)">
<rect width="500" height="280" rx="16" fill="url(#videoBg)"/>
<g transform="translate(250, 140)">
<circle r="50" fill="#fbbf24" opacity=".3"/>
<circle r="32" fill="#fbbf24" opacity=".5"/>
<text y="-2" text-anchor="middle" font-family="Arial" font-size="11" font-weight="700" fill="#fef3c7">BIG BUCK</text>
<text y="12" text-anchor="middle" font-family="Arial" font-size="11" font-weight="700" fill="#fef3c7">BUNNY</text>
</g>
<circle cx="250" cy="140" r="34" fill="#000" opacity=".5"/>
<polygon points="240,124 240,156 264,140" fill="white"/>
<rect x="14" y="262" width="472" height="3" rx="2" fill="#fff" opacity=".2"/>
<rect x="14" y="262" width="296" height="3" rx="2" fill="url(#brand)"/>
<circle cx="310" cy="263.5" r="5" fill="white"/>
</g>

<g transform="translate(20, 440)">
<rect width="500" height="180" rx="16" fill="url(#card)" stroke="#1f1838"/>
<text x="20" y="28" font-family="Arial" font-size="14" font-weight="700" fill="#fafafa">Stream Info</text>
<g font-family="Arial" font-size="11" fill="#a1a1aa">
<text x="20" y="56">Peers</text><text x="480" y="56" text-anchor="end" fill="#22c55e" font-weight="700">42 / 88</text>
<text x="20" y="80">Down</text><text x="480" y="80" text-anchor="end" fill="#22c55e" font-weight="700">12.4 MB/s</text>
<text x="20" y="104">Up</text><text x="480" y="104" text-anchor="end" fill="#a78bfa" font-weight="700">2.1 MB/s</text>
<text x="20" y="128">Progress</text><text x="480" y="128" text-anchor="end" fill="#fafafa" font-weight="700">62%</text>
<rect x="20" y="138" width="460" height="4" rx="2" fill="#0d0820"/>
<rect x="20" y="138" width="285" height="4" rx="2" fill="url(#brand)"/>
<text x="20" y="164">ETA</text><text x="480" y="164" text-anchor="end" fill="#fafafa" font-weight="700">28s</text>
</g>
</g>

<g transform="translate(20, 640)" font-family="Arial">
<text font-size="14" font-weight="700" fill="#fafafa">Active Torrents</text>
<g transform="translate(0, 16)">
<rect width="500" height="64" rx="14" fill="url(#card)" stroke="#1f1838"/>
<rect x="12" y="12" width="40" height="40" rx="8" fill="url(#brand)"/>
<text x="64" y="30" font-size="13" font-weight="700" fill="#fafafa">Big Buck Bunny 1080p</text>
<text x="64" y="46" font-size="10" fill="#a1a1aa">412 MB / 658 MB - 12.4 MB/s</text>
<rect x="64" y="52" width="300" height="3" rx="2" fill="#0d0820"/>
<rect x="64" y="52" width="186" height="3" rx="2" fill="url(#brand)"/>
<text x="476" y="38" text-anchor="end" font-size="12" font-weight="700" fill="#22c55e">62%</text>
</g>
<g transform="translate(0, 92)">
<rect width="500" height="64" rx="14" fill="url(#card)" stroke="#1f1838"/>
<rect x="12" y="12" width="40" height="40" rx="8" fill="#16a34a"/>
<text x="64" y="30" font-size="13" font-weight="700" fill="#fafafa">Sintel 4K</text>
<text x="64" y="46" font-size="10" fill="#a1a1aa">1.8 GB / 2.1 GB - 8.2 MB/s</text>
<rect x="64" y="52" width="300" height="3" rx="2" fill="#0d0820"/>
<rect x="64" y="52" width="258" height="3" rx="2" fill="url(#brand)"/>
<text x="476" y="38" text-anchor="end" font-size="12" font-weight="700" fill="#22c55e">86%</text>
</g>
</g>

<rect x="0" y="884" width="540" height="76" fill="#0d0820"/>
<g transform="translate(0, 884)" font-family="Arial" font-size="10" fill="#a1a1aa">
<g transform="translate(45, 22)"><polygon points="8,12 32,22 8,32" fill="none" stroke="#71717a" stroke-width="1.8"/><text x="20" y="56" text-anchor="middle">Downloads</text></g>
<g transform="translate(135, 22)"><circle cx="20" cy="20" r="9" fill="none" stroke="url(#brand)" stroke-width="1.8"/><circle cx="20" cy="20" r="3" fill="url(#brand)"/><text x="20" y="56" text-anchor="middle" font-weight="700" fill="#c4b5fd">Torrents</text></g>
<g transform="translate(225, 22)"><polygon points="8,12 32,22 8,32" fill="none" stroke="#71717a" stroke-width="1.8"/><text x="20" y="56" text-anchor="middle">Videos</text></g>
<g transform="translate(315, 22)"><circle cx="20" cy="20" r="9" fill="none" stroke="#71717a" stroke-width="1.8"/><text x="20" y="56" text-anchor="middle">Music</text></g>
<g transform="translate(405, 22)"><circle cx="20" cy="20" r="9" fill="none" stroke="#71717a" stroke-width="1.8"/><text x="20" y="56" text-anchor="middle">Search</text></g>
<g transform="translate(495, 22)"><circle cx="20" cy="20" r="3" fill="none" stroke="#71717a" stroke-width="1.8"/><text x="20" y="56" text-anchor="middle">More</text></g>
</g>
</svg>
