<svg xmlns="http://www.w3.org/2000/svg" viewBox="0 0 540 960" width="540" height="960">
<defs>
<linearGradient id="bg" x1="0" y1="0" x2="0" y2="1"><stop offset="0" stop-color="#0a0814"/><stop offset="1" stop-color="#14102a"/></linearGradient>
<linearGradient id="brand" x1="0" y1="0" x2="1" y2="1"><stop offset="0" stop-color="#6366f1"/><stop offset=".5" stop-color="#8b5cf6"/><stop offset="1" stop-color="#a855f7"/></linearGradient>
</defs>
<rect width="540" height="960" fill="url(#bg)"/>
<g transform="translate(270, 380)" opacity=".25">
<circle r="240" fill="url(#brand)"/>
<circle r="380" fill="url(#brand)" opacity=".4"/>
<circle r="540" fill="url(#brand)" opacity=".2"/>
</g>

<g transform="translate(270, 460)">
<rect width="160" height="160" rx="36" fill="url(#brand)"/>
<g transform="translate(80, 80)" stroke="white" stroke-width="8" stroke-linecap="round" stroke-linejoin="round" fill="none">
<path d="M0 -48 V 8"/>
<path d="M-22 -14 L 0 8 L 22 -14"/>
<path d="M-38 24 V 36 a 8 8 0 0 0 8 8 H 30 a 8 8 0 0 0 8 -8 V 24"/>
</g>
</g>

<text x="270" y="160" text-anchor="middle" font-family="Arial" font-size="11" font-weight="700" fill="#a5b4fc" letter-spacing="5">UNIVERSAL DOWNLOAD MANAGER</text>
<text x="270" y="240" text-anchor="middle" font-family="Arial" font-size="48" font-weight="800" fill="#fafafa" letter-spacing="-2">ZenDownload</text>
<text x="270" y="296" text-anchor="middle" font-family="Arial" font-size="18" fill="#c4b5fd">Fast. Modern. Limitless.</text>

<g transform="translate(60, 660)" font-family="Arial">
<g>
<rect width="135" height="60" rx="14" fill="#0d0820" stroke="#1f1838"/>
<rect x="14" y="14" width="32" height="32" rx="8" fill="url(#brand)"/>
<g transform="translate(30, 30)" stroke="white" stroke-width="1.8" fill="none" stroke-linecap="round" stroke-linejoin="round">
<path d="M0 -9 V 3"/><path d="M-4 -2 L 0 3 L 4 -2"/><path d="M-8 7 V 9 a 1 1 0 0 0 1 1 H 7 a 1 1 0 0 0 1 -1 V 7"/>
</g>
<text x="56" y="28" font-size="10" font-weight="700" fill="#fafafa">HTTP/Torrent</text>
<text x="56" y="42" font-size="9" fill="#71717a">8 parallel conn</text>
</g>
<g transform="translate(145, 0)">
<rect width="135" height="60" rx="14" fill="#0d0820" stroke="#1f1838"/>
<rect x="14" y="14" width="32" height="32" rx="8" fill="url(#brand)"/>
<polygon points="22,22 38,30 22,38" fill="white"/>
<text x="56" y="28" font-size="10" font-weight="700" fill="#fafafa">1,462+ sites</text>
<text x="56" y="42" font-size="9" fill="#71717a">yt-dlp built-in</text>
</g>
<g transform="translate(290, 0)">
<rect width="135" height="60" rx="14" fill="#0d0820" stroke="#1f1838"/>
<rect x="14" y="14" width="32" height="32" rx="8" fill="url(#brand)"/>
<circle cx="30" cy="30" r="6" fill="white"/>
<text x="56" y="28" font-size="10" font-weight="700" fill="#fafafa">Music</text>
<text x="56" y="42" font-size="9" fill="#71717a">FLAC + ID3</text>
</g>
</g>

<g transform="translate(60, 750)">
<rect width="420" height="64" rx="16" fill="url(#brand)"/>
<text x="210" y="40" text-anchor="middle" font-family="Arial" font-size="16" font-weight="700" fill="white">Get it on Play Store</text>
</g>
</svg>
