<svg xmlns="http://www.w3.org/2000/svg" viewBox="0 0 540 960" width="540" height="960">
<defs>
<linearGradient id="bg" x1="0" y1="0" x2="0" y2="1"><stop offset="0" stop-color="#0a0814"/><stop offset="1" stop-color="#14102a"/></linearGradient>
<linearGradient id="brand" x1="0" y1="0" x2="1" y2="1"><stop offset="0" stop-color="#6366f1"/><stop offset=".5" stop-color="#8b5cf6"/><stop offset="1" stop-color="#a855f7"/></linearGradient>
<linearGradient id="card" x1="0" y1="0" x2="0" y2="1"><stop offset="0" stop-color="#1a1530"/><stop offset="1" stop-color="#0f0b22"/></linearGradient>
<linearGradient id="prog" x1="0" y1="0" x2="1" y2="0"><stop offset="0" stop-color="#6366f1"/><stop offset="1" stop-color="#a855f7"/></linearGradient>
</defs>
<rect width="540" height="960" fill="url(#bg)"/>
<rect x="0" y="0" width="540" height="64" fill="#0d0820"/>
<text x="20" y="40" font-family="Arial" font-size="13" font-weight="700" fill="#e4e4e7">9:41</text>
<g transform="translate(460, 24)"><rect width="20" height="12" rx="2" fill="none" stroke="#a1a1aa" stroke-width="1.2"/><rect x="2" y="2" width="14" height="8" rx="1" fill="#22c55e"/></g>

<g transform="translate(20, 84)" font-family="Arial">
<text font-size="26" font-weight="800" fill="#fafafa">Appearance</text>
<text y="22" font-size="12" fill="#a1a1aa">Make it yours</text>
</g>

<g transform="translate(20, 130)" font-family="Arial">
<rect width="500" height="120" rx="16" fill="url(#card)" stroke="#1f1838"/>
<text x="20" y="32" font-size="14" font-weight="700" fill="#fafafa">Accent color</text>
<text x="480" y="32" text-anchor="end" font-size="11" fill="#71717a">Choose your color</text>
<g transform="translate(20, 50)">
<circle cx="14" cy="14" r="14" fill="#6366f1"/><circle cx="14" cy="14" r="17" fill="none" stroke="#6366f1" stroke-width="2"/>
<circle cx="50" cy="14" r="14" fill="#3b82f6"/>
<circle cx="86" cy="14" r="14" fill="#8b5cf6"/>
<circle cx="122" cy="14" r="14" fill="#ec4899"/>
<circle cx="158" cy="14" r="14" fill="#ef4444"/>
<circle cx="194" cy="14" r="14" fill="#f97316"/>
<circle cx="230" cy="14" r="14" fill="#f59e0b"/>
<circle cx="266" cy="14" r="14" fill="#10b981"/>
<circle cx="302" cy="14" r="14" fill="#14b8a6"/>
<circle cx="338" cy="14" r="14" fill="#06b6d4"/>
<circle cx="374" cy="14" r="14" fill="#64748b"/>
<circle cx="410" cy="14" r="14" fill="#71717a"/>
<circle cx="446" cy="14" r="14" fill="#f43f5e"/>
</g>
</g>

<g transform="translate(20, 264)" font-family="Arial">
<rect width="500" height="100" rx="16" fill="url(#card)" stroke="#1f1838"/>
<text x="20" y="32" font-size="14" font-weight="700" fill="#fafafa">Background density</text>
<g transform="translate(20, 48)">
<rect width="140" height="36" rx="10" fill="url(#brand)"/>
<text x="70" y="22" text-anchor="middle" font-size="12" fill="white" font-weight="700">Solid</text>
<rect x="150" width="140" height="36" rx="10" fill="#0d0820"/>
<text x="220" y="22" text-anchor="middle" font-size="12" fill="#a1a1aa">Glass</text>
<rect x="300" width="140" height="36" rx="10" fill="#0d0820"/>
<text x="370" y="22" text-anchor="middle" font-size="12" fill="#a1a1aa">Transparent</text>
</g>
</g>

<g transform="translate(20, 376)" font-family="Arial">
<rect width="500" height="100" rx="16" fill="url(#card)" stroke="#1f1838"/>
<text x="20" y="32" font-size="14" font-weight="700" fill="#fafafa">Corner radius</text>
<text x="480" y="32" text-anchor="end" font-size="11" fill="#71717a">Round</text>
<g transform="translate(20, 56)">
<rect width="460" height="6" rx="3" fill="#0d0820"/>
<rect width="260" height="6" rx="3" fill="url(#brand)"/>
<circle cx="260" cy="3" r="10" fill="white"/>
</g>
<g transform="translate(20, 70)">
<text font-size="10" fill="#71717a">Square</text>
<text x="460" text-anchor="end" font-size="10" fill="#71717a">Fully pill</text>
</g>
</g>

<g transform="translate(20, 488)" font-family="Arial">
<rect width="500" height="100" rx="16" fill="url(#card)" stroke="#1f1838"/>
<text x="20" y="32" font-size="14" font-weight="700" fill="#fafafa">Font size</text>
<g transform="translate(20, 48)">
<rect width="80" height="36" rx="10" fill="#0d0820"/>
<text x="40" y="23" text-anchor="middle" font-size="12" fill="#a1a1aa">Small</text>
<rect x="90" width="100" height="36" rx="10" fill="url(#brand)"/>
<text x="140" y="23" text-anchor="middle" font-size="12" fill="white" font-weight="700">Default</text>
<rect x="200" width="80" height="36" rx="10" fill="#0d0820"/>
<text x="240" y="23" text-anchor="middle" font-size="12" fill="#a1a1aa">Large</text>
</g>
</g>

<g transform="translate(20, 600)" font-family="Arial">
<rect width="500" height="240" rx="16" fill="url(#card)" stroke="#1f1838"/>
<text x="20" y="32" font-size="14" font-weight="700" fill="#fafafa">Downloads</text>
<g transform="translate(20, 50)" font-size="12">
<text fill="#e4e4e7" font-weight="600">Default folder</text>
<text x="460" y="0" text-anchor="end" fill="#a78bfa" font-weight="600">~/Downloads</text>
<rect y="14" width="460" height="36" rx="10" fill="#0d0820"/>
<text x="14" y="36" fill="#a1a1aa">~/Downloads/ZenDownload</text>
</g>
<g transform="translate(20, 116)" font-size="12">
<text fill="#e4e4e7" font-weight="600">Max concurrent</text>
<text x="460" y="0" text-anchor="end" fill="#a1a1aa">3 files</text>
<rect y="14" width="460" height="6" rx="3" fill="#0d0820"/>
<rect y="14" width="156" height="6" rx="3" fill="url(#prog)"/>
</g>
<g transform="translate(20, 162)" font-size="12">
<text fill="#e4e4e7" font-weight="600">Connections per file</text>
<text x="460" y="0" text-anchor="end" fill="#a1a1aa">8 segments</text>
<rect y="14" width="460" height="6" rx="3" fill="#0d0820"/>
<rect y="14" width="312" height="6" rx="3" fill="url(#prog)"/>
</g>
<g transform="translate(20, 200)" font-size="12">
<rect width="44" height="24" rx="12" fill="url(#brand)"/>
<circle cx="32" cy="12" r="9" fill="white"/>
<text x="56" y="17" fill="#e4e4e7" font-weight="600">Auto-organize by category</text>
</g>
</g>

<rect x="0" y="884" width="540" height="76" fill="#0d0820"/>
<g transform="translate(0, 884)" font-family="Arial" font-size="10" fill="#a1a1aa">
<g transform="translate(45, 22)"><polygon points="8,12 32,22 8,32" fill="none" stroke="#71717a" stroke-width="1.8"/><text x="20" y="56" text-anchor="middle">Downloads</text></g>
<g transform="translate(135, 22)"><circle cx="20" cy="20" r="9" fill="none" stroke="#71717a" stroke-width="1.8"/><text x="20" y="56" text-anchor="middle">Torrents</text></g>
<g transform="translate(225, 22)"><polygon points="8,12 32,22 8,32" fill="none" stroke="#71717a" stroke-width="1.8"/><text x="20" y="56" text-anchor="middle">Videos</text></g>
<g transform="translate(315, 22)"><circle cx="20" cy="20" r="9" fill="none" stroke="#71717a" stroke-width="1.8"/><text x="20" y="56" text-anchor="middle">Music</text></g>
<g transform="translate(405, 22)"><circle cx="20" cy="20" r="9" fill="none" stroke="#71717a" stroke-width="1.8"/><text x="20" y="56" text-anchor="middle">Speed</text></g>
<g transform="translate(495, 22)"><circle cx="20" cy="20" r="3" fill="none" stroke="url(#brand)" stroke-width="1.8"/><text x="20" y="56" text-anchor="middle" font-weight="700" fill="#c4b5fd">More</text></g>
</g>
</svg>
