<svg xmlns="http://www.w3.org/2000/svg" viewBox="0 0 540 960" width="540" height="960">
<defs>
<linearGradient id="bg" x1="0" y1="0" x2="0" y2="1"><stop offset="0" stop-color="#0a0814"/><stop offset="1" stop-color="#14102a"/></linearGradient>
<linearGradient id="brand" x1="0" y1="0" x2="1" y2="1"><stop offset="0" stop-color="#6366f1"/><stop offset=".5" stop-color="#8b5cf6"/><stop offset="1" stop-color="#a855f7"/></linearGradient>
<linearGradient id="card" x1="0" y1="0" x2="0" y2="1"><stop offset="0" stop-color="#1a1530"/><stop offset="1" stop-color="#0f0b22"/></linearGradient>
<linearGradient id="album" x1="0" y1="0" x2="1" y2="1"><stop offset="0" stop-color="#ec4899"/><stop offset=".5" stop-color="#a855f7"/><stop offset="1" stop-color="#6366f1"/></linearGradient>
</defs>
<rect width="540" height="960" fill="url(#bg)"/>
<rect x="0" y="0" width="540" height="64" fill="#0d0820"/>
<text x="20" y="40" font-family="Arial" font-size="13" font-weight="700" fill="#e4e4e7">9:41</text>
<g transform="translate(460, 24)">
<rect width="20" height="12" rx="2" fill="none" stroke="#a1a1aa" stroke-width="1.2"/>
<rect x="2" y="2" width="14" height="8" rx="1" fill="#22c55e"/>
</g>

<g transform="translate(20, 84)">
<text font-family="Arial" font-size="26" font-weight="800" fill="#fafafa">Music</text>
<text x="500" y="22" text-anchor="end" font-family="Arial" font-size="13" fill="#a78bfa">Search</text>
</g>

<g transform="translate(20, 130)">
<rect width="500" height="60" rx="14" fill="url(#card)" stroke="#1f1838"/>
<circle cx="32" cy="30" r="10" stroke="#71717a" stroke-width="2" fill="none"/>
<line x1="40" y1="38" x2="48" y2="46" stroke="#71717a" stroke-width="2" stroke-linecap="round"/>
<text x="60" y="36" font-family="Arial" font-size="13" fill="#71717a">Search artists, songs, albums...</text>
</g>

<g transform="translate(20, 210)">
<rect width="500" height="380" rx="20" fill="url(#album)"/>
<g transform="translate(250, 170)">
<circle r="100" fill="rgba(0,0,0,.3)"/>
<circle r="80" fill="rgba(255,255,255,.1)"/>
<circle r="14" fill="#0a0814"/>
<circle r="6" fill="#ec4899"/>
</g>
<text x="250" y="316" text-anchor="middle" font-family="Arial" font-size="22" font-weight="800" fill="white">Midnight City</text>
<text x="250" y="340" text-anchor="middle" font-family="Arial" font-size="13" fill="rgba(255,255,255,.75)">M83 - Hurry Up, We're Dreaming</text>
</g>

<g transform="translate(20, 610)" font-family="Arial">
<text font-size="14" font-weight="700" fill="#fafafa">Results</text>
<text x="500" text-anchor="end" font-size="11" fill="#71717a">42 results</text>

<g transform="translate(0, 16)">
<rect width="500" height="68" rx="14" fill="url(#card)" stroke="#1f1838"/>
<rect x="12" y="12" width="44" height="44" rx="8" fill="url(#album)"/>
<text x="68" y="32" font-size="13" font-weight="700" fill="#fafafa">Midnight City</text>
<text x="68" y="50" font-size="11" fill="#a1a1aa">M83 - 4:03 - 320 kbps - 9.4 MB</text>
<rect x="396" y="20" width="92" height="28" rx="8" fill="url(#brand)"/>
<text x="442" y="38" text-anchor="middle" font-size="11" fill="white" font-weight="700">Download</text>
</g>

<g transform="translate(0, 96)">
<rect width="500" height="68" rx="14" fill="url(#card)" stroke="#1f1838"/>
<rect x="12" y="12" width="44" height="44" rx="8" fill="#6366f1"/>
<text x="68" y="32" font-size="13" font-weight="700" fill="#fafafa">Midnight City (Live)</text>
<text x="68" y="50" font-size="11" fill="#a1a1aa">M83 - 5:24 - 256 kbps - 11.2 MB</text>
<rect x="396" y="20" width="92" height="28" rx="8" fill="url(#brand)"/>
<text x="442" y="38" text-anchor="middle" font-size="11" fill="white" font-weight="700">Download</text>
</g>

<g transform="translate(0, 176)">
<rect width="500" height="68" rx="14" fill="url(#card)" stroke="#1f1838"/>
<rect x="12" y="12" width="44" height="44" rx="8" fill="#0ea5e9"/>
<text x="68" y="32" font-size="13" font-weight="700" fill="#fafafa">Midnight City (Remix)</text>
<text x="68" y="50" font-size="11" fill="#a1a1aa">Big Gigantic - 3:48 - FLAC 28 MB</text>
<rect x="396" y="20" width="92" height="28" rx="8" fill="#22c55e"/>
<text x="442" y="38" text-anchor="middle" font-size="11" fill="white" font-weight="700">Saved</text>
</g>
</g>

<rect x="0" y="884" width="540" height="76" fill="#0d0820"/>
<g transform="translate(0, 884)" font-family="Arial" font-size="10" fill="#a1a1aa">
<g transform="translate(45, 22)"><rect width="40" height="4" rx="2" fill="#1f1838"/><polygon points="8,12 32,22 8,32" fill="none" stroke="#71717a" stroke-width="1.8"/><text x="20" y="56" text-anchor="middle">Downloads</text></g>
<g transform="translate(135, 22)"><circle cx="20" cy="20" r="9" fill="none" stroke="#71717a" stroke-width="1.8"/><circle cx="20" cy="20" r="3" fill="#71717a"/><text x="20" y="56" text-anchor="middle">Torrents</text></g>
<g transform="translate(225, 22)"><polygon points="8,12 32,22 8,32" fill="none" stroke="#71717a" stroke-width="1.8"/><text x="20" y="56" text-anchor="middle">Videos</text></g>
<g transform="translate(315, 22)"><circle cx="20" cy="20" r="9" fill="url(#brand)"/><circle cx="20" cy="20" r="3" fill="#c4b5fd"/><text x="20" y="56" text-anchor="middle" font-weight="700" fill="#c4b5fd">Music</text></g>
<g transform="translate(405, 22)"><circle cx="20" cy="20" r="9" fill="none" stroke="#71717a" stroke-width="1.8"/><text x="20" y="56" text-anchor="middle">Search</text></g>
<g transform="translate(495, 22)"><circle cx="20" cy="20" r="3" fill="none" stroke="#71717a" stroke-width="1.8"/><text x="20" y="56" text-anchor="middle">More</text></g>
</g>
</svg>
