<svg xmlns="http://www.w3.org/2000/svg" viewBox="0 0 540 960" width="540" height="960">
<defs>
<linearGradient id="bg" x1="0" y1="0" x2="0" y2="1"><stop offset="0" stop-color="#0a0814"/><stop offset="1" stop-color="#14102a"/></linearGradient>
<linearGradient id="brand" x1="0" y1="0" x2="1" y2="1"><stop offset="0" stop-color="#6366f1"/><stop offset=".5" stop-color="#8b5cf6"/><stop offset="1" stop-color="#a855f7"/></linearGradient>
<linearGradient id="card" x1="0" y1="0" x2="0" y2="1"><stop offset="0" stop-color="#1a1530"/><stop offset="1" stop-color="#0f0b22"/></linearGradient>
<linearGradient id="prog" x1="0" y1="0" x2="1" y2="0"><stop offset="0" stop-color="#6366f1"/><stop offset="1" stop-color="#a855f7"/></linearGradient>
</defs>
<rect width="540" height="960" fill="url(#bg)"/>
<rect x="0" y="0" width="540" height="64" fill="#0d0820"/>
<text x="20" y="40" font-family="Arial" font-size="13" font-weight="700" fill="#e4e4e7">9:41</text>
<g transform="translate(460, 24)"><rect width="20" height="12" rx="2" fill="none" stroke="#a1a1aa" stroke-width="1.2"/><rect x="2" y="2" width="14" height="8" rx="1" fill="#22c55e"/></g>

<g transform="translate(20, 84)" font-family="Arial">
<text font-size="26" font-weight="800" fill="#fafafa">Speed Test</text>
<text y="22" font-size="12" fill="#a1a1aa">Multi-server benchmark</text>
</g>

<g transform="translate(20, 150)">
<rect width="500" height="320" rx="20" fill="url(#card)" stroke="#1f1838"/>
<circle cx="250" cy="160" r="100" fill="none" stroke="#1f1838" stroke-width="18"/>
<circle cx="250" cy="160" r="100" fill="none" stroke="url(#prog)" stroke-width="18" stroke-dasharray="471 628" stroke-linecap="round" transform="rotate(-90 250 160)"/>
<text x="250" y="158" text-anchor="middle" font-family="Arial" font-size="44" font-weight="800" fill="#fafafa">187</text>
<text x="250" y="184" text-anchor="middle" font-family="Arial" font-size="13" fill="#a1a1aa">Mbps</text>
<text x="250" y="208" text-anchor="middle" font-family="Arial" font-size="11" fill="#22c55e" font-weight="700">Excellent connection</text>
</g>

<g transform="translate(20, 490)">
<rect width="500" height="320" rx="20" fill="url(#card)" stroke="#1f1838"/>
<text x="20" y="32" font-family="Arial" font-size="14" font-weight="700" fill="#fafafa">Live Throughput</text>
<text x="480" y="32" text-anchor="end" font-family="Arial" font-size="11" fill="#71717a">Last 30 seconds</text>
<g transform="translate(40, 56)">
<line x1="0" y1="200" x2="420" y2="200" stroke="#1f1838"/>
<line x1="0" y1="50" x2="420" y2="50" stroke="#1f1838" stroke-dasharray="2 4"/>
<line x1="0" y1="100" x2="420" y2="100" stroke="#1f1838" stroke-dasharray="2 4"/>
<line x1="0" y1="150" x2="420" y2="150" stroke="#1f1838" stroke-dasharray="2 4"/>
<text x="-8" y="204" text-anchor="end" font-family="Arial" font-size="9" fill="#71717a">0</text>
<text x="-8" y="54" text-anchor="end" font-family="Arial" font-size="9" fill="#71717a">200</text>
<polyline points="0,120 30,100 60,90 90,80 120,70 150,75 180,55 210,60 240,50 270,45 300,55 330,42 360,46 390,38 420,40" stroke="url(#prog)" stroke-width="3" fill="none" stroke-linecap="round" stroke-linejoin="round"/>
<polygon points="0,120 30,100 60,90 90,80 120,70 150,75 180,55 210,60 240,50 270,45 300,55 330,42 360,46 390,38 420,40 420,200 0,200" fill="url(#prog)" opacity=".15"/>
<text x="0" y="226" font-family="Arial" font-size="9" fill="#71717a">0s</text>
<text x="200" y="226" font-family="Arial" font-size="9" fill="#71717a">15s</text>
<text x="395" y="226" font-family="Arial" font-size="9" fill="#71717a">30s</text>
</g>
</g>

<rect x="0" y="884" width="540" height="76" fill="#0d0820"/>
<g transform="translate(0, 884)" font-family="Arial" font-size="10" fill="#a1a1aa">
<g transform="translate(45, 22)"><polygon points="8,12 32,22 8,32" fill="none" stroke="#71717a" stroke-width="1.8"/><text x="20" y="56" text-anchor="middle">Downloads</text></g>
<g transform="translate(135, 22)"><circle cx="20" cy="20" r="9" fill="none" stroke="#71717a" stroke-width="1.8"/><text x="20" y="56" text-anchor="middle">Torrents</text></g>
<g transform="translate(225, 22)"><polygon points="8,12 32,22 8,32" fill="none" stroke="#71717a" stroke-width="1.8"/><text x="20" y="56" text-anchor="middle">Videos</text></g>
<g transform="translate(315, 22)"><circle cx="20" cy="20" r="9" fill="none" stroke="#71717a" stroke-width="1.8"/><text x="20" y="56" text-anchor="middle">Music</text></g>
<g transform="translate(405, 22)"><circle cx="20" cy="20" r="9" fill="none" stroke="url(#brand)" stroke-width="1.8"/><text x="20" y="56" text-anchor="middle" font-weight="700" fill="#c4b5fd">Speed</text></g>
<g transform="translate(495, 22)"><circle cx="20" cy="20" r="3" fill="none" stroke="#71717a" stroke-width="1.8"/><text x="20" y="56" text-anchor="middle">More</text></g>
</g>
</svg>
