<svg xmlns="http://www.w3.org/2000/svg" viewBox="0 0 540 960" width="540" height="960">
<defs>
<linearGradient id="bg" x1="0" y1="0" x2="0" y2="1"><stop offset="0" stop-color="#0a0814"/><stop offset="1" stop-color="#14102a"/></linearGradient>
<linearGradient id="brand" x1="0" y1="0" x2="1" y2="1"><stop offset="0" stop-color="#6366f1"/><stop offset=".5" stop-color="#8b5cf6"/><stop offset="1" stop-color="#a855f7"/></linearGradient>
<linearGradient id="card" x1="0" y1="0" x2="0" y2="1"><stop offset="0" stop-color="#1a1530"/><stop offset="1" stop-color="#0f0b22"/></linearGradient>
</defs>
<rect width="540" height="960" fill="url(#bg)"/>
<rect x="0" y="0" width="540" height="64" fill="#0d0820"/>
<text x="20" y="40" font-family="Arial" font-size="13" font-weight="700" fill="#e4e4e7">9:41</text>
<g transform="translate(460, 24)"><rect width="20" height="12" rx="2" fill="none" stroke="#a1a1aa" stroke-width="1.2"/><rect x="2" y="2" width="14" height="8" rx="1" fill="#22c55e"/></g>

<g transform="translate(20, 84)" font-family="Arial">
<text font-size="26" font-weight="800" fill="#fafafa">Plugins</text>
<text y="22" font-size="12" fill="#a1a1aa">42 plugins available</text>
</g>

<g transform="translate(20, 130)">
<rect width="500" height="48" rx="12" fill="url(#card)" stroke="#1f1838"/>
<circle cx="26" cy="24" r="8" stroke="#71717a" stroke-width="2" fill="none"/>
<line x1="32" y1="30" x2="38" y2="36" stroke="#71717a" stroke-width="2" stroke-linecap="round"/>
<text x="50" y="30" font-family="Arial" font-size="12" fill="#71717a">Search plugins...</text>
</g>

<g transform="translate(20, 200)" font-family="Arial">
<g>
<rect width="500" height="120" rx="16" fill="url(#card)" stroke="#1f1838"/>
<rect x="16" y="16" width="56" height="56" rx="12" fill="#5865f2"/>
<text x="44" y="56" text-anchor="middle" font-size="26" font-weight="800" fill="white">D</text>
<text x="88" y="34" font-size="14" font-weight="700" fill="#fafafa">Discord Notifier</text>
<text x="88" y="52" font-size="11" fill="#71717a">by zen-plugins</text>
<rect x="88" y="60" width="48" height="16" rx="8" fill="#1e1b4b"/>
<text x="112" y="71" text-anchor="middle" font-size="9" fill="#a5b4fc" font-weight="700">v1.2.0</text>
<text x="16" y="96" font-size="11" fill="#a1a1aa">Send download events to Discord channels</text>
<text x="16" y="110" font-size="11" fill="#a1a1aa">via webhooks. Rich embeds with thumbnails.</text>
<rect x="380" y="84" width="100" height="26" rx="8" fill="url(#brand)"/>
<text x="430" y="101" text-anchor="middle" font-size="11" fill="white" font-weight="700">Install</text>
</g>

<g transform="translate(0, 132)">
<rect width="500" height="120" rx="16" fill="url(#card)" stroke="#1f1838"/>
<rect x="16" y="16" width="56" height="56" rx="12" fill="#1db954"/>
<circle cx="44" cy="44" r="14" fill="white"/>
<text x="88" y="34" font-size="14" font-weight="700" fill="#fafafa">Spotify Import</text>
<text x="88" y="52" font-size="11" fill="#71717a">by community</text>
<rect x="88" y="60" width="48" height="16" rx="8" fill="#1e1b4b"/>
<text x="112" y="71" text-anchor="middle" font-size="9" fill="#a5b4fc" font-weight="700">v0.8.4</text>
<text x="16" y="96" font-size="11" fill="#a1a1aa">Import Spotify playlists and convert to</text>
<text x="16" y="110" font-size="11" fill="#a1a1aa">downloads via yt-dlp search.</text>
<rect x="380" y="84" width="100" height="26" rx="8" fill="#22c55e"/>
<text x="430" y="101" text-anchor="middle" font-size="11" fill="white" font-weight="700">Installed</text>
</g>

<g transform="translate(0, 264)">
<rect width="500" height="120" rx="16" fill="url(#card)" stroke="#1f1838"/>
<rect x="16" y="16" width="56" height="56" rx="12" fill="#06b6d4"/>
<text x="44" y="54" text-anchor="middle" font-size="20" font-weight="800" fill="white">QB</text>
<text x="88" y="34" font-size="14" font-weight="700" fill="#fafafa">qBittorrent Sync</text>
<text x="88" y="52" font-size="11" fill="#71717a">by poweruser</text>
<rect x="88" y="60" width="48" height="16" rx="8" fill="#1e1b4b"/>
<text x="112" y="71" text-anchor="middle" font-size="9" fill="#a5b4fc" font-weight="700">v2.0.1</text>
<text x="16" y="96" font-size="11" fill="#a1a1aa">Two-way sync with qBittorrent WebUI.</text>
<text x="16" y="110" font-size="11" fill="#a1a1aa">Auto-add magnets, mirror categories.</text>
<rect x="380" y="84" width="100" height="26" rx="8" fill="url(#brand)"/>
<text x="430" y="101" text-anchor="middle" font-size="11" fill="white" font-weight="700">Install</text>
</g>

<g transform="translate(0, 396)">
<rect width="500" height="120" rx="16" fill="url(#card)" stroke="#1f1838"/>
<rect x="16" y="16" width="56" height="56" rx="12" fill="#f59e0b"/>
<text x="44" y="54" text-anchor="middle" font-size="14" font-weight="800" fill="white">RSS</text>
<text x="88" y="34" font-size="14" font-weight="700" fill="#fafafa">RSS Auto-Download</text>
<text x="88" y="52" font-size="11" fill="#71717a">by zen-plugins</text>
<rect x="88" y="60" width="48" height="16" rx="8" fill="#1e1b4b"/>
<text x="112" y="71" text-anchor="middle" font-size="9" fill="#a5b4fc" font-weight="700">v3.1.0</text>
<text x="16" y="96" font-size="11" fill="#a1a1aa">Auto-download new items from RSS feeds.</text>
<text x="16" y="110" font-size="11" fill="#a1a1aa">Smart filters, duplicate detection.</text>
<rect x="380" y="84" width="100" height="26" rx="8" fill="url(#brand)"/>
<text x="430" y="101" text-anchor="middle" font-size="11" fill="white" font-weight="700">Install</text>
</g>
</g>

<rect x="0" y="884" width="540" height="76" fill="#0d0820"/>
<g transform="translate(0, 884)" font-family="Arial" font-size="10" fill="#a1a1aa">
<g transform="translate(45, 22)"><polygon points="8,12 32,22 8,32" fill="none" stroke="#71717a" stroke-width="1.8"/><text x="20" y="56" text-anchor="middle">Downloads</text></g>
<g transform="translate(135, 22)"><circle cx="20" cy="20" r="9" fill="none" stroke="#71717a" stroke-width="1.8"/><text x="20" y="56" text-anchor="middle">Torrents</text></g>
<g transform="translate(225, 22)"><polygon points="8,12 32,22 8,32" fill="none" stroke="#71717a" stroke-width="1.8"/><text x="20" y="56" text-anchor="middle">Videos</text></g>
<g transform="translate(315, 22)"><circle cx="20" cy="20" r="9" fill="none" stroke="#71717a" stroke-width="1.8"/><text x="20" y="56" text-anchor="middle">Music</text></g>
<g transform="translate(405, 22)"><circle cx="20" cy="20" r="9" fill="none" stroke="url(#brand)" stroke-width="1.8"/><text x="20" y="56" text-anchor="middle" font-weight="700" fill="#c4b5fd">Plugins</text></g>
<g transform="translate(495, 22)"><circle cx="20" cy="20" r="3" fill="none" stroke="#71717a" stroke-width="1.8"/><text x="20" y="56" text-anchor="middle">More</text></g>
</g>
</svg>
