<svg xmlns="http://www.w3.org/2000/svg" viewBox="0 0 1280 320" width="1280" height="320">
  <defs>
    <linearGradient id="bg" x1="0%" y1="0%" x2="100%" y2="100%">
      <stop offset="0%" stop-color="#0f0a1f"/>
      <stop offset="50%" stop-color="#1a1033"/>
      <stop offset="100%" stop-color="#0d0820"/>
    </linearGradient>
    <radialGradient id="glow1" cx="20%" cy="40%" r="50%">
      <stop offset="0%" stop-color="#6366f1" stop-opacity="0.35"/>
      <stop offset="100%" stop-color="#6366f1" stop-opacity="0"/>
    </radialGradient>
    <radialGradient id="glow2" cx="85%" cy="60%" r="50%">
      <stop offset="0%" stop-color="#a855f7" stop-opacity="0.3"/>
      <stop offset="100%" stop-color="#a855f7" stop-opacity="0"/>
    </radialGradient>
    <linearGradient id="g" x1="0%" y1="0%" x2="100%" y2="100%">
      <stop offset="0%" stop-color="#818cf8"/>
      <stop offset="50%" stop-color="#a78bfa"/>
      <stop offset="100%" stop-color="#c084fc"/>
    </linearGradient>
    <linearGradient id="text" x1="0%" y1="0%" x2="100%" y2="0%">
      <stop offset="0%" stop-color="#a5b4fc"/>
      <stop offset="50%" stop-color="#c4b5fd"/>
      <stop offset="100%" stop-color="#d8b4fe"/>
    </linearGradient>
    <filter id="soft" x="-20%" y="-20%" width="140%" height="140%">
      <feGaussianBlur stdDeviation="6"/>
    </filter>
  </defs>

  <rect width="1280" height="320" fill="url(#bg)"/>
  <rect width="1280" height="320" fill="url(#glow1)"/>
  <rect width="1280" height="320" fill="url(#glow2)"/>

  <g opacity="0.15" stroke="#a78bfa" stroke-width="1" fill="none">
    <path d="M0 80 Q 320 60 640 80 T 1280 80"/>
    <path d="M0 240 Q 320 220 640 240 T 1280 240"/>
  </g>

  <g transform="translate(110, 80)">
    <rect width="160" height="160" rx="36" fill="url(#g)" opacity="0.18" filter="url(#soft)"/>
    <rect width="160" height="160" rx="36" fill="url(#g)"/>
    <g transform="translate(80, 80)" stroke="white" stroke-width="7" stroke-linecap="round" stroke-linejoin="round" fill="none">
      <path d="M0 -50 V 10"/>
      <path d="M-22 -12 L 0 10 L 22 -12"/>
      <path d="M-40 24 V 36 a 8 8 0 0 0 8 8 H 32 a 8 8 0 0 0 8 -8 V 24"/>
    </g>
  </g>

  <g transform="translate(310, 110)" font-family="-apple-system, BlinkMacSystemFont, 'Segoe UI', Inter, sans-serif">
    <text x="0" y="60" font-size="76" font-weight="800" fill="url(#text)" letter-spacing="-2.5">ZenDownload</text>
    <text x="3" y="100" font-size="20" font-weight="500" fill="#a1a1aa" letter-spacing="6">UNIVERSAL DOWNLOAD MANAGER</text>
  </g>

  <g transform="translate(316, 232)" font-family="-apple-system, BlinkMacSystemFont, 'Segoe UI', Inter, sans-serif" font-size="18" font-weight="500" fill="#d4d4d8">
    <text x="0" y="0">Fast.</text>
    <text x="80" y="0">Modern.</text>
    <text x="200" y="0">Limitless.</text>
  </g>
</svg>
