<svg xmlns="http://www.w3.org/2000/svg" viewBox="0 0 1280 320" width="1280" height="320">
  <defs>
    <linearGradient id="bg" x1="0%" y1="0%" x2="100%" y2="100%">
      <stop offset="0%" stop-color="#0d0820"/>
      <stop offset="50%" stop-color="#1a1033"/>
      <stop offset="100%" stop-color="#0a0618"/>
    </linearGradient>
    <radialGradient id="glowLeft" cx="18%" cy="55%" r="42%">
      <stop offset="0%" stop-color="#6366f1" stop-opacity="0.45"/>
      <stop offset="60%" stop-color="#6366f1" stop-opacity="0.12"/>
      <stop offset="100%" stop-color="#6366f1" stop-opacity="0"/>
    </radialGradient>
    <radialGradient id="glowRight" cx="85%" cy="40%" r="45%">
      <stop offset="0%" stop-color="#a855f7" stop-opacity="0.40"/>
      <stop offset="60%" stop-color="#a855f7" stop-opacity="0.10"/>
      <stop offset="100%" stop-color="#a855f7" stop-opacity="0"/>
    </radialGradient>
    <radialGradient id="glowCenter" cx="50%" cy="50%" r="35%">
      <stop offset="0%" stop-color="#8b5cf6" stop-opacity="0.25"/>
      <stop offset="100%" stop-color="#8b5cf6" stop-opacity="0"/>
    </radialGradient>
    <linearGradient id="icon" x1="0%" y1="0%" x2="100%" y2="100%">
      <stop offset="0%" stop-color="#818cf8"/>
      <stop offset="50%" stop-color="#a78bfa"/>
      <stop offset="100%" stop-color="#c084fc"/>
    </linearGradient>
    <linearGradient id="text" x1="0%" y1="0%" x2="100%" y2="0%">
      <stop offset="0%" stop-color="#c7d2fe"/>
      <stop offset="50%" stop-color="#ddd6fe"/>
      <stop offset="100%" stop-color="#f0abfc"/>
    </linearGradient>
    <linearGradient id="underline" x1="0%" y1="0%" x2="100%" y2="0%">
      <stop offset="0%" stop-color="#6366f1" stop-opacity="0"/>
      <stop offset="20%" stop-color="#6366f1"/>
      <stop offset="50%" stop-color="#8b5cf6"/>
      <stop offset="80%" stop-color="#a855f7"/>
      <stop offset="100%" stop-color="#a855f7" stop-opacity="0"/>
    </linearGradient>
    <filter id="iconGlow" x="-30%" y="-30%" width="160%" height="160%">
      <feGaussianBlur stdDeviation="8" result="blur"/>
      <feMerge>
        <feMergeNode in="blur"/>
        <feMergeNode in="SourceGraphic"/>
      </feMerge>
    </filter>
  </defs>

  <rect width="1280" height="320" fill="url(#bg)"/>
  <rect width="1280" height="320" fill="url(#glowCenter)"/>
  <rect width="1280" height="320" fill="url(#glowLeft)"/>
  <rect width="1280" height="320" fill="url(#glowRight)"/>

  <g opacity="0.10" stroke="#a78bfa" stroke-width="1" fill="none">
    <path d="M0 100 Q 320 80 640 100 T 1280 100"/>
    <path d="M0 220 Q 320 200 640 220 T 1280 220"/>
  </g>

  <g opacity="0.04" fill="#a78bfa">
    <circle cx="80" cy="60" r="1.2"/>
    <circle cx="220" cy="40" r="1"/>
    <circle cx="380" cy="80" r="1.4"/>
    <circle cx="540" cy="50" r="1"/>
    <circle cx="700" cy="70" r="1.2"/>
    <circle cx="860" cy="40" r="1"/>
    <circle cx="1020" cy="80" r="1.4"/>
    <circle cx="1180" cy="50" r="1"/>
    <circle cx="120" cy="260" r="1.2"/>
    <circle cx="320" cy="280" r="1"/>
    <circle cx="520" cy="260" r="1.4"/>
    <circle cx="720" cy="280" r="1"/>
    <circle cx="920" cy="260" r="1.2"/>
    <circle cx="1120" cy="280" r="1"/>
  </g>

  <g transform="translate(120, 80)" filter="url(#iconGlow)">
    <rect x="-6" y="-6" width="172" height="172" rx="42" fill="url(#icon)" opacity="0.25"/>
    <rect width="160" height="160" rx="38" fill="url(#icon)"/>
    <rect x="3" y="3" width="154" height="154" rx="35" fill="none" stroke="white" stroke-opacity="0.18" stroke-width="1"/>
    <g transform="translate(80, 80)" stroke="white" stroke-width="7" stroke-linecap="round" stroke-linejoin="round" fill="none">
      <path d="M0 -50 V 14"/>
      <path d="M-22 -10 L 0 14 L 22 -10"/>
      <path d="M-40 30 V 42 a 8 8 0 0 0 8 8 H 32 a 8 8 0 0 0 8 -8 V 30"/>
    </g>
  </g>

  <g transform="translate(330, 0)" font-family="-apple-system, BlinkMacSystemFont, 'Segoe UI', Inter, 'Helvetica Neue', Arial, sans-serif">
    <g transform="translate(0, 110)">
      <text font-size="78" font-weight="800" fill="url(#text)" letter-spacing="-2.8">ZenDownload</text>
      <rect x="0" y="22" width="540" height="2" fill="url(#underline)" opacity="0.6"/>
    </g>
    <g transform="translate(0, 165)">
      <rect x="0" y="-14" width="9" height="9" rx="2" fill="#22c55e"/>
      <text x="18" y="-6" font-size="16" font-weight="600" fill="#a5b4fc" letter-spacing="5">UNIVERSAL DOWNLOAD MANAGER</text>
    </g>
    <g transform="translate(0, 210)" font-size="18" font-weight="500" fill="#d4d4d8">
      <text x="0" y="0">Fast.</text>
      <text x="86" y="0" fill="#71717a">·</text>
      <text x="106" y="0">Modern.</text>
      <text x="210" y="0" fill="#71717a">·</text>
      <text x="230" y="0">Limitless.</text>
    </g>
  </g>

  <g transform="translate(960, 70)" opacity="0.85">
    <g transform="translate(0, 0)">
      <rect width="100" height="28" rx="14" fill="#1a1530" stroke="#6366f1" stroke-opacity="0.4"/>
      <circle cx="14" cy="14" r="4" fill="#22c55e"/>
      <text x="26" y="18" font-family="-apple-system, sans-serif" font-size="11" font-weight="600" fill="#e4e4e7">v0.1.0</text>
    </g>
    <g transform="translate(110, 0)">
      <rect width="100" height="28" rx="14" fill="#1a1530" stroke="#a855f7" stroke-opacity="0.4"/>
      <text x="50" y="18" text-anchor="middle" font-family="-apple-system, sans-serif" font-size="11" font-weight="600" fill="#c084fc">MIT</text>
    </g>
  </g>
</svg>
