<svg xmlns="http://www.w3.org/2000/svg" viewBox="0 0 1280 800" width="1280" height="800">
<defs>
<linearGradient id="bg" x1="0" y1="0" x2="1" y2="1"><stop offset="0" stop-color="#0a0814"/><stop offset="1" stop-color="#14102a"/></linearGradient>
<linearGradient id="brand" x1="0" y1="0" x2="1" y2="1"><stop offset="0" stop-color="#6366f1"/><stop offset=".5" stop-color="#8b5cf6"/><stop offset="1" stop-color="#a855f7"/></linearGradient>
<linearGradient id="card" x1="0" y1="0" x2="0" y2="1"><stop offset="0" stop-color="#1a1530" stop-opacity=".8"/><stop offset="1" stop-color="#0f0b22" stop-opacity=".8"/></linearGradient>
<linearGradient id="hero" x1="0" y1="0" x2="1" y2="1"><stop offset="0" stop-color="#6366f1"/><stop offset="1" stop-color="#a855f7"/></linearGradient>
</defs>
<rect width="1280" height="800" fill="url(#bg)"/>

<g transform="translate(640,400)" opacity=".25">
<circle r="320" fill="url(#brand)"/>
<circle r="500" fill="url(#brand)" opacity=".4"/>
<circle r="700" fill="url(#brand)" opacity=".2"/>
</g>

<text x="640" y="120" text-anchor="middle" font-family="Arial" font-size="13" font-weight="700" fill="#a5b4fc" letter-spacing="6">UNIVERSAL DOWNLOAD MANAGER</text>
<text x="640" y="220" text-anchor="middle" font-family="Arial" font-size="84" font-weight="800" fill="#fafafa">One App.</text>
<text x="640" y="310" text-anchor="middle" font-family="Arial" font-size="84" font-weight="800" fill="url(#brand)">Every Download.</text>
<text x="640" y="370" text-anchor="middle" font-family="Arial" font-size="18" fill="#a1a1aa">HTTP, torrents, videos from 1,462+ sites, music, debrid - in one beautiful native app.</text>

<g transform="translate(440,420)">
<rect width="180" height="50" rx="10" fill="url(#hero)"/>
<text x="90" y="32" text-anchor="middle" font-family="Arial" font-size="14" font-weight="700" fill="white">Download for Linux</text>
<rect x="200" width="180" height="50" rx="10" fill="#fff" opacity=".08" stroke="#fff" stroke-opacity=".2"/>
<text x="290" y="32" text-anchor="middle" font-family="Arial" font-size="14" font-weight="700" fill="white">View on GitHub</text>
</g>

<g transform="translate(140,540)" font-family="Arial">
<g>
<rect width="320" height="180" rx="16" fill="url(#card)" stroke="#6366f1" stroke-opacity=".3"/>
<g transform="translate(40,40)">
<rect width="44" height="44" rx="10" fill="url(#brand)"/>
<g transform="translate(22,22)" stroke="white" stroke-width="2.5" fill="none" stroke-linecap="round" stroke-linejoin="round">
<path d="M0 -12 V 4"/>
<path d="M-5 -3 L 0 4 L 5 -3"/>
<path d="M-9 9 V 12 a 2 2 0 0 0 2 2 H 7 a 2 2 0 0 0 2 -2 V 9"/>
</g>
</g>
<text x="100" y="56" font-size="16" font-weight="700" fill="#fafafa">HTTP & Torrents</text>
<text x="100" y="74" font-size="12" fill="#a1a1aa">8 parallel connections</text>
<text x="20" y="124" font-size="12" fill="#a1a1aa">Multi-threaded segmented</text>
<text x="20" y="142" font-size="12" fill="#a1a1aa">downloads with resume.</text>
<text x="20" y="160" font-size="12" fill="#a1a1aa">Full DHT, PEX, magnet support.</text>
</g>

<g transform="translate(340,0)">
<rect width="320" height="180" rx="16" fill="url(#card)" stroke="#6366f1" stroke-opacity=".3"/>
<g transform="translate(40,40)">
<rect width="44" height="44" rx="10" fill="url(#brand)"/>
<polygon points="14,8 36,22 14,36" fill="white"/>
</g>
<text x="100" y="56" font-size="16" font-weight="700" fill="#fafafa">1,462+ Streaming Sites</text>
<text x="100" y="74" font-size="12" fill="#a1a1aa">YouTube, Twitter, Reddit, TikTok</text>
<text x="20" y="124" font-size="12" fill="#a1a1aa">Quality picker, format selection,</text>
<text x="20" y="142" font-size="12" fill="#a1a1aa">browser extension with universal</text>
<text x="20" y="160" font-size="12" fill="#a1a1aa">video capture.</text>
</g>

<g transform="translate(680,0)">
<rect width="320" height="180" rx="16" fill="url(#card)" stroke="#6366f1" stroke-opacity=".3"/>
<g transform="translate(40,40)">
<rect width="44" height="44" rx="10" fill="url(#brand)"/>
<circle cx="22" cy="22" r="9" fill="white"/>
<circle cx="22" cy="22" r="3" fill="#a855f7"/>
</g>
<text x="100" y="56" font-size="16" font-weight="700" fill="#fafafa">Music + Metadata</text>
<text x="100" y="74" font-size="12" fill="#a1a1aa">FLAC, MP3, ID3 tags</text>
<text x="20" y="124" font-size="12" fill="#a1a1aa">Search YouTube and SoundCloud,</text>
<text x="20" y="142" font-size="12" fill="#a1a1aa">download with full album art</text>
<text x="20" y="160" font-size="12" fill="#a1a1aa">and ID3 metadata embedded.</text>
</g>
</g>

<g transform="translate(140,540)" opacity=".8">
<g transform="translate(1020,0)">
<rect width="0" height="180"/>
</g>
</g>

<g transform="translate(140,540)" font-family="Arial">
<g transform="translate(0,200)">
<rect width="320" height="40" rx="10" fill="url(#card)" stroke="#1f1838"/>
<rect x="14" y="10" width="20" height="20" rx="4" fill="#06b6d4"/>
<text x="44" y="25" font-size="12" font-weight="600" fill="#fafafa">Real-Debrid</text>
<text x="280" y="25" text-anchor="end" font-size="11" fill="#22c55e">Ready</text>
</g>
<g transform="translate(340,200)">
<rect width="320" height="40" rx="10" fill="url(#card)" stroke="#1f1838"/>
<rect x="14" y="10" width="20" height="20" rx="4" fill="#22c55e"/>
<text x="44" y="25" font-size="12" font-weight="600" fill="#fafafa">Torrent Streaming</text>
<text x="280" y="25" text-anchor="end" font-size="11" fill="#22c55e">Ready</text>
</g>
<g transform="translate(680,200)">
<rect width="320" height="40" rx="10" fill="url(#card)" stroke="#1f1838"/>
<rect x="14" y="10" width="20" height="20" rx="4" fill="#f59e0b"/>
<text x="44" y="25" font-size="12" font-weight="600" fill="#fafafa">yt-dlp + RSSHub</text>
<text x="280" y="25" text-anchor="end" font-size="11" fill="#22c55e">Updated</text>
</g>
</g>
</svg>
