<svg xmlns="http://www.w3.org/2000/svg" viewBox="0 0 1280 800" width="1280" height="800">
  <defs>
    <linearGradient id="bg" x1="0%" y1="0%" x2="100%" y2="100%">
      <stop offset="0%" stop-color="#0a0814"/>
      <stop offset="50%" stop-color="#100b22"/>
      <stop offset="100%" stop-color="#0a0814"/>
    </linearGradient>
    <radialGradient id="glowTop" cx="50%" cy="0%" r="60%">
      <stop offset="0%" stop-color="#6366f1" stop-opacity="0.25"/>
      <stop offset="100%" stop-color="#6366f1" stop-opacity="0"/>
    </radialGradient>
    <radialGradient id="glowBottom" cx="50%" cy="100%" r="50%">
      <stop offset="0%" stop-color="#a855f7" stop-opacity="0.20"/>
      <stop offset="100%" stop-color="#a855f7" stop-opacity="0"/>
    </radialGradient>
    <linearGradient id="brand" x1="0%" y1="0%" x2="100%" y2="100%">
      <stop offset="0%" stop-color="#6366f1"/>
      <stop offset="50%" stop-color="#8b5cf6"/>
      <stop offset="100%" stop-color="#a855f7"/>
    </linearGradient>
    <linearGradient id="brandText" x1="0%" y1="0%" x2="100%" y2="0%">
      <stop offset="0%" stop-color="#818cf8"/>
      <stop offset="50%" stop-color="#a78bfa"/>
      <stop offset="100%" stop-color="#c084fc"/>
    </linearGradient>
    <linearGradient id="winBg" x1="0%" y1="0%" x2="0%" y2="100%">
      <stop offset="0%" stop-color="#1a1530"/>
      <stop offset="100%" stop-color="#0f0b22"/>
    </linearGradient>
    <linearGradient id="row1" x1="0%" y1="0%" x2="100%" y2="0%">
      <stop offset="0%" stop-color="#1a1530" stop-opacity="0.6"/>
      <stop offset="100%" stop-color="#1a1530" stop-opacity="0.3"/>
    </linearGradient>
    <linearGradient id="progress1" x1="0%" y1="0%" x2="100%" y2="0%">
      <stop offset="0%" stop-color="#6366f1"/>
      <stop offset="100%" stop-color="#8b5cf6"/>
    </linearGradient>
    <linearGradient id="progress2" x1="0%" y1="0%" x2="100%" y2="0%">
      <stop offset="0%" stop-color="#06b6d4"/>
      <stop offset="100%" stop-color="#22c55e"/>
    </linearGradient>
    <linearGradient id="progress3" x1="0%" y1="0%" x2="100%" y2="0%">
      <stop offset="0%" stop-color="#f59e0b"/>
      <stop offset="100%" stop-color="#ef4444"/>
    </linearGradient>
    <filter id="windowShadow" x="-10%" y="-10%" width="120%" height="130%">
      <feGaussianBlur stdDeviation="20" result="blur"/>
      <feOffset dx="0" dy="12" result="offsetBlur"/>
      <feFlood flood-color="#000" flood-opacity="0.5"/>
      <feComposite in2="offsetBlur" operator="in"/>
      <feMerge>
        <feMergeNode/>
        <feMergeNode in="SourceGraphic"/>
      </feMerge>
    </filter>
  </defs>

  <rect width="1280" height="800" fill="url(#bg)"/>
  <rect width="1280" height="800" fill="url(#glowTop)"/>
  <rect width="1280" height="800" fill="url(#glowBottom)"/>

  <g opacity="0.06" fill="#a78bfa">
    <circle cx="80" cy="120" r="1.2"/>
    <circle cx="240" cy="80" r="1"/>
    <circle cx="400" cy="140" r="1.4"/>
    <circle cx="560" cy="100" r="1"/>
    <circle cx="720" cy="130" r="1.2"/>
    <circle cx="880" cy="90" r="1"/>
    <circle cx="1040" cy="120" r="1.4"/>
    <circle cx="1200" cy="80" r="1"/>
    <circle cx="160" cy="700" r="1.2"/>
    <circle cx="380" cy="720" r="1"/>
    <circle cx="600" cy="700" r="1.4"/>
    <circle cx="820" cy="720" r="1"/>
    <circle cx="1040" cy="700" r="1.2"/>
  </g>

  <g opacity="0.15" stroke="#6366f1" stroke-width="1" fill="none">
    <circle cx="640" cy="400" r="380"/>
    <circle cx="640" cy="400" r="280"/>
  </g>

  <g transform="translate(640, 90)" text-anchor="middle" font-family="-apple-system, BlinkMacSystemFont, 'Segoe UI', Inter, 'Helvetica Neue', Arial, sans-serif">
    <g>
      <rect x="-110" y="-22" width="220" height="32" rx="16" fill="#1a1530" stroke="#6366f1" stroke-opacity="0.4"/>
      <circle cx="-86" cy="-6" r="3.5" fill="#22c55e"/>
      <text x="-72" y="-1" font-size="12" font-weight="600" fill="#a5b4fc" letter-spacing="2" text-anchor="start">UNIVERSAL DOWNLOAD MANAGER</text>
    </g>
    <text y="80" font-size="68" font-weight="800" fill="#fafafa" letter-spacing="-2.5">One App.</text>
    <text y="155" font-size="68" font-weight="800" fill="url(#brandText)" letter-spacing="-2.5">Every Download.</text>
    <text y="200" font-size="17" font-weight="500" fill="#a1a1aa">HTTP, torrents, streaming sites, music, debrid — one beautiful native app.</text>
  </g>

  <g transform="translate(450, 310)" font-family="-apple-system, BlinkMacSystemFont, 'Segoe UI', Inter, sans-serif">
    <g transform="translate(0, 0)">
      <rect width="170" height="46" rx="10" fill="url(#brand)"/>
      <rect width="170" height="46" rx="10" fill="white" opacity="0.1"/>
      <text x="85" y="29" text-anchor="middle" font-size="14" font-weight="700" fill="white">Download for Linux</text>
    </g>
    <g transform="translate(190, 0)">
      <rect width="170" height="46" rx="10" fill="white" opacity="0.05" stroke="white" stroke-opacity="0.18"/>
      <text x="85" y="29" text-anchor="middle" font-size="14" font-weight="700" fill="#e4e4e7">View on GitHub</text>
    </g>
  </g>

  <g transform="translate(220, 410)" filter="url(#windowShadow)">
    <rect width="840" height="320" rx="14" fill="url(#winBg)" stroke="#1f1838" stroke-width="1"/>
    <rect width="840" height="36" rx="14" fill="#0d0820"/>
    <rect y="22" width="840" height="14" fill="#0d0820"/>
    <g transform="translate(14, 18)">
      <circle r="5" fill="#ef4444"/>
      <circle cx="16" r="5" fill="#eab308"/>
      <circle cx="32" r="5" fill="#22c55e"/>
    </g>
    <text x="420" y="22" text-anchor="middle" font-family="-apple-system, sans-serif" font-size="12" fill="#71717a">ZenDownload - Downloads</text>

    <g transform="translate(0, 36)">
      <rect width="200" height="284" fill="#0d0820"/>
      <rect x="199" width="1" height="284" fill="#1f1838"/>
      <g transform="translate(16, 20)" font-family="-apple-system, sans-serif" font-size="12" fill="#a1a1aa">
        <rect x="-8" y="-12" width="184" height="24" rx="6" fill="url(#brand)" opacity="0.15"/>
        <rect x="-8" y="-12" width="2" height="24" fill="url(#brand)"/>
        <text x="0" y="4" fill="#e4e4e7" font-weight="600">Downloads</text>
        <rect x="148" y="-8" width="24" height="16" rx="8" fill="#6366f1"/>
        <text x="160" y="3" font-size="10" font-weight="700" fill="white" text-anchor="middle">3</text>

        <text x="0" y="36">Torrents</text>
        <text x="0" y="60">Videos</text>
        <text x="0" y="84">Music</text>
        <text x="0" y="108">Subscriptions</text>
        <text x="0" y="132">Plugins</text>
        <text x="0" y="156">Speed Test</text>
        <text x="0" y="180">Grabber</text>
        <text x="0" y="204">Settings</text>
      </g>
    </g>

    <g transform="translate(216, 56)" font-family="-apple-system, sans-serif" font-size="11">
      <g>
        <rect width="608" height="40" rx="6" fill="url(#row1)" stroke="#1f1838"/>
        <rect x="10" y="10" width="20" height="20" rx="4" fill="url(#brand)"/>
        <text x="40" y="18" fill="#e4e4e7" font-weight="600" font-size="12">ubuntu-24.04-desktop-amd64.iso</text>
        <text x="40" y="32" fill="#71717a">5.2 GB · 12.4 MB/s · 4m 18s</text>
        <rect x="280" y="16" width="200" height="4" rx="2" fill="#0a0814"/>
        <rect x="280" y="16" width="120" height="4" rx="2" fill="url(#progress1)"/>
        <text x="494" y="24" fill="#a78bfa" font-weight="600" text-anchor="end" font-size="11">62%</text>
        <text x="598" y="24" text-anchor="end" fill="#22c55e" font-weight="600" font-size="11">12.4 MB/s</text>
      </g>
      <g transform="translate(0, 48)">
        <rect width="608" height="40" rx="6" fill="url(#row1)" stroke="#1f1838"/>
        <rect x="10" y="10" width="20" height="20" rx="4" fill="#16a34a"/>
        <text x="40" y="18" fill="#e4e4e7" font-weight="600" font-size="12">Sintel.4K.mkv</text>
        <text x="40" y="32" fill="#71717a">1.8 GB / 2.1 GB · 8.2 MB/s · 1m 04s</text>
        <rect x="280" y="16" width="200" height="4" rx="2" fill="#0a0814"/>
        <rect x="280" y="16" width="172" height="4" rx="2" fill="url(#progress2)"/>
        <text x="494" y="24" fill="#a78bfa" font-weight="600" text-anchor="end" font-size="11">86%</text>
        <text x="598" y="24" text-anchor="end" fill="#22c55e" font-weight="600" font-size="11">8.2 MB/s</text>
      </g>
      <g transform="translate(0, 96)">
        <rect width="608" height="40" rx="6" fill="url(#row1)" stroke="#1f1838"/>
        <rect x="10" y="10" width="20" height="20" rx="4" fill="#0ea5e9"/>
        <text x="40" y="18" fill="#e4e4e7" font-weight="600" font-size="12">Big.Buck.Bunny.1080p.mp4</text>
        <text x="40" y="32" fill="#71717a">412 MB / 658 MB · 2.1 MB/s · 1m 56s</text>
        <rect x="280" y="16" width="200" height="4" rx="2" fill="#0a0814"/>
        <rect x="280" y="16" width="125" height="4" rx="2" fill="url(#progress3)"/>
        <text x="494" y="24" fill="#a78bfa" font-weight="600" text-anchor="end" font-size="11">62%</text>
        <text x="598" y="24" text-anchor="end" fill="#22c55e" font-weight="600" font-size="11">2.1 MB/s</text>
      </g>
      <g transform="translate(0, 144)">
        <rect width="608" height="40" rx="6" fill="url(#row1)" stroke="#1f1838" stroke-dasharray="4 3"/>
        <rect x="10" y="10" width="20" height="20" rx="4" fill="#f59e0b"/>
        <text x="40" y="18" fill="#e4e4e7" font-weight="600" font-size="12">debian-12.5.0-amd64-netinst.iso</text>
        <text x="40" y="32" fill="#eab308">Queued · 0 B / 1.2 GB</text>
        <text x="598" y="24" text-anchor="end" fill="#71717a" font-weight="600" font-size="11">—</text>
      </g>
      <g transform="translate(0, 192)">
        <rect width="608" height="40" rx="6" fill="url(#row1)" stroke="#1f1838"/>
        <rect x="10" y="10" width="20" height="20" rx="4" fill="#ec4899"/>
        <text x="40" y="18" fill="#e4e4e7" font-weight="600" font-size="12">lofi-hiphop-radio-24-7.mp3</text>
        <text x="40" y="32" fill="#71717a">28 MB / 124 MB · 1.4 MB/s · 1m 12s</text>
        <rect x="280" y="16" width="200" height="4" rx="2" fill="#0a0814"/>
        <rect x="280" y="16" width="45" height="4" rx="2" fill="url(#progress1)"/>
        <text x="494" y="24" fill="#a78bfa" font-weight="600" text-anchor="end" font-size="11">22%</text>
        <text x="598" y="24" text-anchor="end" fill="#22c55e" font-weight="600" font-size="11">1.4 MB/s</text>
      </g>
    </g>
  </g>

  <g transform="translate(640, 750)" text-anchor="middle" font-family="-apple-system, BlinkMacSystemFont, 'Segoe UI', Inter, sans-serif">
    <g transform="translate(-280, 0)">
      <rect x="-60" y="-14" width="120" height="28" rx="14" fill="#1a1530" stroke="#6366f1" stroke-opacity="0.4"/>
      <circle cx="-46" cy="0" r="4" fill="#22c55e"/>
      <text x="-36" y="4" font-size="11" font-weight="600" fill="#c7d2fe" text-anchor="start">Real-Debrid</text>
    </g>
    <g transform="translate(-90, 0)">
      <rect x="-60" y="-14" width="120" height="28" rx="14" fill="#1a1530" stroke="#a855f7" stroke-opacity="0.4"/>
      <circle cx="-46" cy="0" r="4" fill="#a78bfa"/>
      <text x="-36" y="4" font-size="11" font-weight="600" fill="#ddd6fe" text-anchor="start">yt-dlp · 1000+ sites</text>
    </g>
    <g transform="translate(100, 0)">
      <rect x="-60" y="-14" width="120" height="28" rx="14" fill="#1a1530" stroke="#22c55e" stroke-opacity="0.4"/>
      <circle cx="-46" cy="0" r="4" fill="#22c55e"/>
      <text x="-36" y="4" font-size="11" font-weight="600" fill="#bbf7d0" text-anchor="start">Torrent Streaming</text>
    </g>
    <g transform="translate(290, 0)">
      <rect x="-60" y="-14" width="120" height="28" rx="14" fill="#1a1530" stroke="#06b6d4" stroke-opacity="0.4"/>
      <circle cx="-46" cy="0" r="4" fill="#22d3ee"/>
      <text x="-36" y="4" font-size="11" font-weight="600" fill="#a5f3fc" text-anchor="start">RSSHub · 12 sources</text>
    </g>
  </g>
</svg>
