<svg xmlns="http://www.w3.org/2000/svg" viewBox="0 0 1280 800" width="1280" height="800">
  <defs>
    <linearGradient id="bg" x1="0%" y1="0%" x2="100%" y2="100%">
      <stop offset="0%" stop-color="#0a0814"/>
      <stop offset="100%" stop-color="#14102a"/>
    </linearGradient>
    <linearGradient id="brand" x1="0%" y1="0%" x2="100%" y2="100%">
      <stop offset="0%" stop-color="#6366f1"/>
      <stop offset="50%" stop-color="#8b5cf6"/>
      <stop offset="100%" stop-color="#a855f7"/>
    </linearGradient>
    <linearGradient id="surface" x1="0%" y1="0%" x2="0%" y2="100%">
      <stop offset="0%" stop-color="#1a1530" stop-opacity="0.8"/>
      <stop offset="100%" stop-color="#0f0b22" stop-opacity="0.8"/>
    </linearGradient>
    <linearGradient id="prog" x1="0%" y1="0%" x2="100%" y2="0%">
      <stop offset="0%" stop-color="#6366f1"/>
      <stop offset="100%" stop-color="#a855f7"/>
    </linearGradient>
    <radialGradient id="ambient" cx="20%" cy="0%" r="60%">
      <stop offset="0%" stop-color="#6366f1" stop-opacity="0.15"/>
      <stop offset="100%" stop-color="#6366f1" stop-opacity="0"/>
    </radialGradient>
    <filter id="shadow">
      <feGaussianBlur stdDeviation="2"/>
    </filter>
  </defs>

  <!-- Window -->
  <rect width="1280" height="800" fill="url(#bg)"/>
  <rect width="1280" height="800" fill="url(#ambient)"/>

  <!-- Title bar -->
  <rect width="1280" height="40" fill="#0d0820"/>
  <circle cx="20" cy="20" r="6" fill="#ef4444"/>
  <circle cx="40" cy="20" r="6" fill="#eab308"/>
  <circle cx="60" cy="20" r="6" fill="#22c55e"/>
  <text x="640" y="26" font-family="-apple-system, sans-serif" font-size="13" fill="#71717a" text-anchor="middle">ZenDownload</text>

  <!-- Sidebar -->
  <rect x="0" y="40" width="240" height="760" fill="#0d0820"/>
  <rect x="239" y="40" width="1" height="760" fill="#1f1838"/>

  <!-- Logo -->
  <g transform="translate(20, 60)">
    <rect width="32" height="32" rx="8" fill="url(#brand)"/>
    <g transform="translate(16,16)" stroke="white" stroke-width="2" stroke-linecap="round" stroke-linejoin="round" fill="none">
      <path d="M0 -10 V 2"/>
      <path d="M-4 -2 L 0 2 L 4 -2"/>
      <path d="M-8 6 V 8 a 1.5 1.5 0 0 0 1.5 1.5 H 6.5 a 1.5 1.5 0 0 0 1.5 -1.5 V 6"/>
    </g>
    <text x="44" y="22" font-family="-apple-system, sans-serif" font-size="15" font-weight="700" fill="#e4e4e7">ZenDownload</text>
  </g>

  <!-- Nav items -->
  <g font-family="-apple-system, sans-serif" font-size="13" fill="#a1a1aa">
    <rect x="12" y="120" width="216" height="36" rx="8" fill="url(#brand)" opacity="0.15"/>
    <rect x="12" y="120" width="3" height="36" rx="2" fill="url(#brand)"/>
    <g transform="translate(28,138)" stroke="#c4b5fd" stroke-width="1.8" fill="none" stroke-linecap="round" stroke-linejoin="round">
      <path d="M2 12 V 4 M -2 8 L 2 12 L 6 8 M -4 14 H 8"/>
    </g>
    <text x="60" y="143" fill="#e4e4e7" font-weight="600">Downloads</text>
    <rect x="200" y="129" width="22" height="18" rx="9" fill="#6366f1"/>
    <text x="211" y="142" fill="white" font-size="11" font-weight="700" text-anchor="middle">12</text>

    <g transform="translate(28,176)" stroke="#a1a1aa" stroke-width="1.8" fill="none" stroke-linecap="round" stroke-linejoin="round">
      <circle cx="6" cy="6" r="3"/>
      <path d="M6 0v3M6 9v3M0 6h3M9 6h3M1.5 1.5l2 2M8.5 8.5l2 2M1.5 10.5l2-2M8.5 3.5l2-2"/>
    </g>
    <text x="60" y="181">Torrents</text>
    <rect x="195" y="169" width="28" height="18" rx="9" fill="#27202f"/>
    <text x="209" y="182" fill="#a1a1aa" font-size="11" text-anchor="middle">4</text>

    <g transform="translate(28,216)" stroke="#a1a1aa" stroke-width="1.8" fill="none" stroke-linecap="round" stroke-linejoin="round">
      <polygon points="0,2 12,6 0,10"/>
      <rect x="-3" y="0" width="3" height="12" rx="1"/>
    </g>
    <text x="60" y="221">Videos</text>

    <g transform="translate(28,256)" stroke="#a1a1aa" stroke-width="1.8" fill="none" stroke-linecap="round" stroke-linejoin="round">
      <circle cx="3" cy="9" r="3"/>
      <circle cx="10" cy="7" r="3"/>
      <path d="M3 6V0h7v7"/>
    </g>
    <text x="60" y="261">Music</text>

    <g transform="translate(28,296)" stroke="#a1a1aa" stroke-width="1.8" fill="none" stroke-linecap="round" stroke-linejoin="round">
      <circle cx="6" cy="6" r="6"/>
      <line x1="14" y1="14" x2="10" y2="10"/>
    </g>
    <text x="60" y="301">Subscriptions</text>

    <g transform="translate(28,336)" stroke="#a1a1aa" stroke-width="1.8" fill="none" stroke-linecap="round" stroke-linejoin="round">
      <path d="M0 3 Q 6 1 12 3 M 0 7 Q 6 5 12 7 M 0 11 Q 6 9 12 11"/>
    </g>
    <text x="60" y="341">Speed Test</text>

    <g transform="translate(28,376)" stroke="#a1a1aa" stroke-width="1.8" fill="none" stroke-linecap="round" stroke-linejoin="round">
      <path d="M2 6 L 6 10 L 10 2"/>
      <circle cx="6" cy="6" r="6"/>
    </g>
    <text x="60" y="381">Completed</text>

    <line x1="20" y1="420" x2="220" y2="420" stroke="#1f1838"/>
    <text x="20" y="448" font-size="11" font-weight="600" fill="#71717a" letter-spacing="1.5">PLUGINS</text>

    <g transform="translate(28,468)" stroke="#a1a1aa" stroke-width="1.8" fill="none" stroke-linecap="round" stroke-linejoin="round">
      <path d="M6 0 L 0 3 L 6 6 L 12 3 Z M 0 3 V 9 L 6 12 L 12 9 V 3"/>
    </g>
    <text x="60" y="473">Plugin Store</text>

    <g transform="translate(28,508)" stroke="#a1a1aa" stroke-width="1.8" fill="none" stroke-linecap="round" stroke-linejoin="round">
      <circle cx="6" cy="6" r="3"/>
      <circle cx="6" cy="6" r="6"/>
    </g>
    <text x="60" y="513">Radio</text>

    <g transform="translate(28,548)" stroke="#a1a1aa" stroke-width="1.8" fill="none" stroke-linecap="round" stroke-linejoin="round">
      <rect x="0" y="2" width="12" height="8" rx="1"/>
      <path d="M2 0v2 M10 0v2 M5 10v2"/>
    </g>
    <text x="60" y="553">Settings</text>
  </g>

  <!-- Bottom user -->
  <g transform="translate(20, 720)">
    <circle cx="20" cy="20" r="18" fill="url(#brand)"/>
    <text x="20" y="26" text-anchor="middle" font-family="-apple-system, sans-serif" font-size="14" font-weight="700" fill="white">SB</text>
    <text x="48" y="18" font-family="-apple-system, sans-serif" font-size="13" font-weight="600" fill="#e4e4e7">swadhinbiswas</text>
    <text x="48" y="34" font-family="-apple-system, sans-serif" font-size="11" fill="#71717a">Pro · 12 GB / day</text>
  </g>

  <!-- Main content -->
  <g transform="translate(264, 64)">
    <!-- Header -->
    <text font-family="-apple-system, sans-serif" font-size="28" font-weight="800" fill="#fafafa">Downloads</text>
    <text y="26" font-family="-apple-system, sans-serif" font-size="14" fill="#a1a1aa">12 active · 4.2 GB today · 8.7 MB/s</text>

    <!-- Stats cards -->
    <g transform="translate(640, -16)">
      <rect width="180" height="58" rx="10" fill="url(#surface)" stroke="#1f1838"/>
      <text x="14" y="22" font-family="-apple-system, sans-serif" font-size="11" fill="#71717a" letter-spacing="1">SPEED</text>
      <text x="14" y="44" font-family="-apple-system, sans-serif" font-size="18" font-weight="700" fill="#22c55e">8.7 MB/s</text>
      <polyline points="100,38 115,28 128,33 142,20 155,25 168,15" stroke="#22c55e" stroke-width="2" fill="none" stroke-linecap="round"/>

      <rect x="190" width="180" height="58" rx="10" fill="url(#surface)" stroke="#1f1838"/>
      <text x="204" y="22" font-family="-apple-system, sans-serif" font-size="11" fill="#71717a" letter-spacing="1">ACTIVE</text>
      <text x="204" y="44" font-family="-apple-system, sans-serif" font-size="18" font-weight="700" fill="#e4e4e7">12 files</text>
      <text x="280" y="22" font-family="-apple-system, sans-serif" font-size="11" fill="#71717a" letter-spacing="1">TODAY</text>
      <text x="280" y="44" font-family="-apple-system, sans-serif" font-size="18" font-weight="700" fill="#e4e4e7">4.2 GB</text>
    </g>

    <!-- Toolbar -->
    <g transform="translate(0, 60)">
      <rect width="980" height="44" rx="10" fill="url(#surface)" stroke="#1f1838"/>
      <rect x="12" y="8" width="280" height="28" rx="6" fill="#0d0820"/>
      <circle cx="26" cy="22" r="6" stroke="#71717a" stroke-width="1.5" fill="none"/>
      <line x1="30" y1="26" x2="34" y2="30" stroke="#71717a" stroke-width="1.5" stroke-linecap="round"/>
      <text x="42" y="26" font-family="-apple-system, sans-serif" font-size="12" fill="#71717a">Search downloads…</text>

      <g transform="translate(312, 8)" font-family="-apple-system, sans-serif" font-size="12" fill="#a1a1aa">
        <rect width="80" height="28" rx="6" fill="#6366f1"/>
        <text x="40" y="18" fill="white" font-weight="600" text-anchor="middle">All</text>
        <text x="125" y="18">Active</text>
        <text x="180" y="18">Queued</text>
        <text x="240" y="18">Paused</text>
        <text x="300" y="18">Completed</text>
      </g>

      <rect x="852" y="8" width="116" height="28" rx="6" fill="#6366f1"/>
      <text x="910" y="26" font-family="-apple-system, sans-serif" font-size="12" font-weight="600" fill="white" text-anchor="middle">+ Add URL</text>
    </g>

    <!-- Download rows -->
    <g transform="translate(0, 124)" font-family="-apple-system, sans-serif">
      <!-- Row 1 -->
      <rect width="980" height="78" rx="10" fill="url(#surface)" stroke="#1f1838"/>
      <rect x="16" y="16" width="46" height="46" rx="8" fill="url(#brand)"/>
      <g transform="translate(39, 39)" stroke="white" stroke-width="2" fill="none" stroke-linecap="round" stroke-linejoin="round">
        <polygon points="-4,-6 8,0 -4,6"/>
      </g>
      <text x="76" y="32" font-size="14" font-weight="600" fill="#fafafa">youtube-dl-demo.mp4</text>
      <text x="76" y="50" font-size="12" fill="#a1a1aa">YouTube · 1080p · yt-dlp</text>
      <text x="76" y="66" font-size="11" fill="#71717a">142 MB · 8.2 MB/s · 18s left</text>
      <rect x="76" y="72" width="780" height="3" rx="2" fill="#0d0820"/>
      <rect x="76" y="72" width="624" height="3" rx="2" fill="url(#prog)"/>
      <circle cx="864" cy="39" r="14" fill="none" stroke="#a1a1aa" stroke-width="1.5"/>
      <line x1="864" y1="32" x2="864" y2="46" stroke="#a1a1aa" stroke-width="1.5"/>
      <circle cx="900" cy="39" r="14" fill="none" stroke="#a1a1aa" stroke-width="1.5"/>
      <line x1="894" y1="33" x2="906" y2="45" stroke="#a1a1aa" stroke-width="1.5" stroke-linecap="round"/>
      <circle cx="936" cy="39" r="14" fill="#22c55e"/>
      <polyline points="930,39 934,43 942,35" stroke="white" stroke-width="2" fill="none" stroke-linecap="round" stroke-linejoin="round"/>

      <!-- Row 2 -->
      <g transform="translate(0, 88)">
        <rect width="980" height="78" rx="10" fill="url(#surface)" stroke="#1f1838"/>
        <rect x="16" y="16" width="46" height="46" rx="8" fill="#7c3aed"/>
        <text x="39" y="46" text-anchor="middle" font-size="18" font-weight="700" fill="white">♫</text>
        <text x="76" y="32" font-size="14" font-weight="600" fill="#fafafa">Midnight_City.flac</text>
        <text x="76" y="50" font-size="12" fill="#a1a1aa">SoundCloud · 1411 kbps · FLAC</text>
        <text x="76" y="66" font-size="11" fill="#71717a">28.4 MB · 2.1 MB/s · 4s left</text>
        <rect x="76" y="72" width="780" height="3" rx="2" fill="#0d0820"/>
        <rect x="76" y="72" width="710" height="3" rx="2" fill="url(#prog)"/>
        <circle cx="864" cy="39" r="14" fill="none" stroke="#a1a1aa" stroke-width="1.5"/>
        <line x1="864" y1="32" x2="864" y2="46" stroke="#a1a1aa" stroke-width="1.5"/>
        <circle cx="900" cy="39" r="14" fill="none" stroke="#a1a1aa" stroke-width="1.5"/>
        <line x1="894" y1="33" x2="906" y2="45" stroke="#a1a1aa" stroke-width="1.5" stroke-linecap="round"/>
        <circle cx="936" cy="39" r="14" fill="#22c55e"/>
        <polyline points="930,39 934,43 942,35" stroke="white" stroke-width="2" fill="none" stroke-linecap="round" stroke-linejoin="round"/>
      </g>

      <!-- Row 3 -->
      <g transform="translate(0, 176)">
        <rect width="980" height="78" rx="10" fill="url(#surface)" stroke="#1f1838"/>
        <rect x="16" y="16" width="46" height="46" rx="8" fill="#0ea5e9"/>
        <g transform="translate(39, 39)" stroke="white" stroke-width="2" fill="none" stroke-linecap="round" stroke-linejoin="round">
          <circle r="6"/>
          <path d="M-6 0a6 6 0 0 1 6-6M0 -6a6 6 0 0 1 6 6"/>
        </g>
        <text x="76" y="32" font-size="14" font-weight="600" fill="#fafafa">ubuntu-24.04-desktop-amd64.iso</text>
        <text x="76" y="50" font-size="12" fill="#a1a1aa">releases.ubuntu.com · 8 connections</text>
        <text x="76" y="66" font-size="11" fill="#71717a">3.2 GB / 5.7 GB · 24.8 MB/s · 1m 32s left</text>
        <rect x="76" y="72" width="780" height="3" rx="2" fill="#0d0820"/>
        <rect x="76" y="72" width="436" height="3" rx="2" fill="url(#prog)"/>
        <circle cx="864" cy="39" r="14" fill="none" stroke="#a1a1aa" stroke-width="1.5"/>
        <line x1="864" y1="32" x2="864" y2="46" stroke="#a1a1aa" stroke-width="1.5"/>
        <circle cx="900" cy="39" r="14" fill="none" stroke="#a1a1aa" stroke-width="1.5"/>
        <line x1="894" y1="33" x2="906" y2="45" stroke="#a1a1aa" stroke-width="1.5" stroke-linecap="round"/>
        <circle cx="936" cy="39" r="14" fill="none" stroke="#a1a1aa" stroke-width="1.5"/>
      </g>

      <!-- Row 4 -->
      <g transform="translate(0, 264)">
        <rect width="980" height="78" rx="10" fill="url(#surface)" stroke="#1f1838"/>
        <rect x="16" y="16" width="46" height="46" rx="8" fill="#dc2626"/>
        <text x="39" y="46" text-anchor="middle" font-size="14" font-weight="700" fill="white">ZIP</text>
        <text x="76" y="32" font-size="14" font-weight="600" fill="#fafafa">project-archive.zip</text>
        <text x="76" y="50" font-size="12" fill="#a1a1aa">cdn.example.com · 4 connections</text>
        <text x="76" y="66" font-size="11" fill="#eab308">Paused · 124 MB / 890 MB</text>
        <rect x="76" y="72" width="780" height="3" rx="2" fill="#0d0820"/>
        <rect x="76" y="72" width="108" height="3" rx="2" fill="#eab308"/>
        <circle cx="864" cy="39" r="14" fill="#eab308"/>
        <polygon points="860,33 860,45 870,39" fill="white"/>
        <circle cx="900" cy="39" r="14" fill="none" stroke="#a1a1aa" stroke-width="1.5"/>
        <line x1="894" y1="33" x2="906" y2="45" stroke="#a1a1aa" stroke-width="1.5" stroke-linecap="round"/>
        <circle cx="936" cy="39" r="14" fill="none" stroke="#a1a1aa" stroke-width="1.5"/>
      </g>

      <!-- Row 5 -->
      <g transform="translate(0, 352)">
        <rect width="980" height="78" rx="10" fill="url(#surface)" stroke="#1f1838"/>
        <rect x="16" y="16" width="46" height="46" rx="8" fill="#16a34a"/>
        <g transform="translate(39, 39)" stroke="white" stroke-width="2" fill="none" stroke-linecap="round" stroke-linejoin="round">
          <circle r="5"/>
          <path d="M-5 0a5 5 0 0 1 5-5M0 -5a5 5 0 0 1 5 5"/>
        </g>
        <text x="76" y="32" font-size="14" font-weight="600" fill="#fafafa">debian-12-netinst.iso.torrent</text>
        <text x="76" y="50" font-size="12" fill="#a1a1aa">BitTorrent · 24 peers · DHT</text>
        <text x="76" y="66" font-size="11" fill="#71717a">412 MB / 624 MB · 6.1 MB/s · 36s left</text>
        <rect x="76" y="72" width="780" height="3" rx="2" fill="#0d0820"/>
        <rect x="76" y="72" width="515" height="3" rx="2" fill="url(#prog)"/>
        <circle cx="864" cy="39" r="14" fill="none" stroke="#a1a1aa" stroke-width="1.5"/>
        <line x1="864" y1="32" x2="864" y2="46" stroke="#a1a1aa" stroke-width="1.5"/>
        <circle cx="900" cy="39" r="14" fill="none" stroke="#a1a1aa" stroke-width="1.5"/>
        <line x1="894" y1="33" x2="906" y2="45" stroke="#a1a1aa" stroke-width="1.5" stroke-linecap="round"/>
        <circle cx="936" cy="39" r="14" fill="none" stroke="#a1a1aa" stroke-width="1.5"/>
      </g>

      <!-- Row 6 -->
      <g transform="translate(0, 440)">
        <rect width="980" height="78" rx="10" fill="url(#surface)" stroke="#1f1838"/>
        <rect x="16" y="16" width="46" height="46" rx="8" fill="#f59e0b"/>
        <text x="39" y="46" text-anchor="middle" font-size="16" font-weight="700" fill="white">PDF</text>
        <text x="76" y="32" font-size="14" font-weight="600" fill="#fafafa">design-specs-2026.pdf</text>
        <text x="76" y="50" font-size="12" fill="#a1a1aa">docs.company.com · direct</text>
        <text x="76" y="66" font-size="11" fill="#22c55e">Completed · 18 MB · 2s</text>
        <rect x="76" y="72" width="780" height="3" rx="2" fill="#22c55e"/>
        <circle cx="864" cy="39" r="14" fill="none" stroke="#a1a1aa" stroke-width="1.5"/>
        <circle cx="900" cy="39" r="14" fill="none" stroke="#a1a1aa" stroke-width="1.5"/>
        <circle cx="936" cy="39" r="14" fill="#22c55e"/>
        <polyline points="930,39 934,43 942,35" stroke="white" stroke-width="2" fill="none" stroke-linecap="round" stroke-linejoin="round"/>
      </g>
    </g>
  </g>
</svg>
