<svg xmlns="http://www.w3.org/2000/svg" viewBox="0 0 1280 800" width="1280" height="800">
<defs>
<linearGradient id="brand" x1="0" y1="0" x2="1" y2="1"><stop offset="0" stop-color="#6366f1"/><stop offset=".5" stop-color="#8b5cf6"/><stop offset="1" stop-color="#a855f7"/></linearGradient>
</defs>
<rect width="1280" height="800" fill="#fafafa"/>
<rect width="1280" height="40" fill="#e4e4e7"/>
<circle cx="20" cy="20" r="6" fill="#ef4444"/><circle cx="40" cy="20" r="6" fill="#eab308"/><circle cx="60" cy="20" r="6" fill="#22c55e"/>
<rect x="80" y="12" width="320" height="16" rx="8" fill="#fff"/>
<text x="92" y="24" font-family="Arial" font-size="11" fill="#52525b">youtube.com/watch?v=dQw4w9WgXcQ</text>
<text x="1240" y="24" font-family="Arial" font-size="11" fill="#71717a" text-anchor="end">YouTube</text>

<g transform="translate(60,80)">
<text font-family="Arial" font-size="20" font-weight="700" fill="#18181b">Lo-Fi Beats Radio - 24/7 Study Music</text>
<text y="22" font-family="Arial" font-size="13" fill="#71717a">Lofi Girl - 1.2M views - 2 days ago</text>

<g transform="translate(0,40)">
<rect width="800" height="450" rx="12" fill="#1a1a1a"/>
<rect width="800" height="450" rx="12" fill="url(#brand)" opacity=".15"/>
<g transform="translate(400,200)">
<circle r="60" fill="#fbbf24" opacity=".3"/>
<circle r="40" fill="#fbbf24" opacity=".5"/>
<text y="6" text-anchor="middle" font-family="Arial" font-size="14" font-weight="700" fill="#fef3c7">LO-FI</text>
</g>
<rect x="20" y="400" width="760" height="4" rx="2" fill="#fff" opacity=".2"/>
<rect x="20" y="400" width="380" height="4" rx="2" fill="#ef4444"/>
<circle cx="400" cy="402" r="6" fill="white"/>
<polygon points="30,418 46,428 30,438" fill="white"/>
<text x="56" y="432" font-family="Arial" font-size="12" fill="white">12:34</text>
<text x="760" y="432" font-family="Arial" font-size="12" fill="white" text-anchor="end">CC</text>
</g>
</g>

<g transform="translate(900,90)">
<rect width="220" height="80" rx="10" fill="#fff" stroke="#d4d4d8"/>
<rect x="14" y="14" width="52" height="52" rx="10" fill="url(#brand)"/>
<g transform="translate(40,40)" stroke="white" stroke-width="2.5" fill="none" stroke-linecap="round" stroke-linejoin="round">
<path d="M0 -14 V 4"/>
<path d="M-6 -4 L 0 4 L 6 -4"/>
<path d="M-12 10 V 14 a 2 2 0 0 0 2 2 H 10 a 2 2 0 0 0 2 -2 V 10"/>
</g>
<text x="80" y="32" font-family="Arial" font-size="13" font-weight="700" fill="#18181b">Download</text>
<text x="80" y="50" font-family="Arial" font-size="11" fill="#71717a">Send to ZenDownload</text>
</g>

<g transform="translate(900,200)">
<rect width="340" height="460" rx="14" fill="#fff" stroke="#d4d4d8"/>
<rect width="340" height="60" rx="14" fill="#fff"/>
<rect x="0" y="46" width="340" height="14" fill="#fff"/>
<rect x="20" y="18" width="24" height="24" rx="5" fill="url(#brand)"/>
<g transform="translate(32,30)" stroke="white" stroke-width="2" fill="none" stroke-linecap="round" stroke-linejoin="round">
<path d="M0 -7 V 2"/>
<path d="M-3 -2 L 0 2 L 3 -2"/>
</g>
<text x="54" y="32" font-family="Arial" font-size="14" font-weight="700" fill="#18181b">Captured Media</text>
<text x="54" y="48" font-family="Arial" font-size="11" fill="#71717a">4 items on this page</text>
<text x="318" y="36" font-family="Arial" font-size="16" fill="#a1a1aa" text-anchor="end">x</text>
<line x1="0" y1="60" x2="340" y2="60" stroke="#e4e4e7"/>

<g transform="translate(16,76)">
<rect width="308" height="48" rx="8" fill="#f4f4f5"/>
<rect x="8" y="8" width="32" height="32" rx="6" fill="url(#brand)"/>
<text x="48" y="22" font-family="Arial" font-size="11" font-weight="600" fill="#18181b">lofi-hiphop-radio.mp4</text>
<text x="48" y="38" font-family="Arial" font-size="10" fill="#71717a">stream 1080p - detected 2s ago</text>
<rect x="256" y="16" width="44" height="16" rx="8" fill="#f59e0b"/>
<text x="278" y="27" font-family="Arial" font-size="9" font-weight="700" fill="white" text-anchor="middle">YT</text>
</g>

<g transform="translate(16,132)">
<rect width="308" height="48" rx="8" fill="#f4f4f5"/>
<rect x="8" y="8" width="32" height="32" rx="6" fill="#1db954"/>
<circle cx="24" cy="24" r="6" fill="white"/>
<text x="48" y="22" font-family="Arial" font-size="11" font-weight="600" fill="#18181b">study-beats-mix.mp3</text>
<text x="48" y="38" font-family="Arial" font-size="10" fill="#71717a">audio 320kbps - 28 MB</text>
<rect x="256" y="16" width="44" height="16" rx="8" fill="#1db954"/>
<text x="278" y="27" font-family="Arial" font-size="9" font-weight="700" fill="white" text-anchor="middle">SC</text>
</g>

<g transform="translate(16,188)">
<rect width="308" height="48" rx="8" fill="#f4f4f5"/>
<rect x="8" y="8" width="32" height="32" rx="6" fill="#ec4899"/>
<text x="48" y="22" font-family="Arial" font-size="11" font-weight="600" fill="#18181b">cover-poster.jpg</text>
<text x="48" y="38" font-family="Arial" font-size="10" fill="#71717a">image 1920x1080</text>
<rect x="256" y="16" width="44" height="16" rx="8" fill="#ec4899"/>
<text x="278" y="27" font-family="Arial" font-size="9" font-weight="700" fill="white" text-anchor="middle">IMG</text>
</g>

<g transform="translate(16,244)">
<rect width="308" height="48" rx="8" fill="#f4f4f5"/>
<rect x="8" y="8" width="32" height="32" rx="6" fill="#0ea5e9"/>
<text x="48" y="22" font-family="Arial" font-size="11" font-weight="600" fill="#18181b">chill-vibes-mix.mp4</text>
<text x="48" y="38" font-family="Arial" font-size="10" fill="#71717a">stream 720p - detected 5s ago</text>
<rect x="256" y="16" width="44" height="16" rx="8" fill="#0ea5e9"/>
<text x="278" y="27" font-family="Arial" font-size="9" font-weight="700" fill="white" text-anchor="middle">TT</text>
</g>

<rect x="16" y="312" width="308" height="40" rx="8" fill="url(#brand)"/>
<text x="170" y="337" text-anchor="middle" font-family="Arial" font-size="13" font-weight="600" fill="white">Download All (4)</text>

<text x="170" y="380" text-anchor="middle" font-family="Arial" font-size="10" fill="#a1a1aa">Right-click any media for more options</text>
</g>

<g transform="translate(60,620)" font-family="Arial">
<rect width="800" height="44" rx="10" fill="#fff" stroke="#e4e4e7"/>
<rect x="10" y="10" width="24" height="24" rx="12" fill="#ef4444"/>
<text x="22" y="26" text-anchor="middle" font-size="11" font-weight="700" fill="white">SU</text>
<text x="44" y="22" font-size="13" font-weight="600" fill="#18181b">Lofi Girl</text>
<text x="44" y="36" font-size="11" fill="#71717a">2.4M subscribers</text>
<rect x="700" y="10" width="80" height="24" rx="6" fill="#ef4444"/>
<text x="740" y="26" text-anchor="middle" font-size="11" font-weight="700" fill="white">Subscribe</text>
</g>
</svg>
