<svg xmlns="http://www.w3.org/2000/svg" viewBox="0 0 1280 800" width="1280" height="800">
<defs>
<linearGradient id="bg" x1="0" y1="0" x2="1" y2="1"><stop offset="0" stop-color="#0a0814"/><stop offset="1" stop-color="#14102a"/></linearGradient>
<linearGradient id="brand" x1="0" y1="0" x2="1" y2="1"><stop offset="0" stop-color="#6366f1"/><stop offset=".5" stop-color="#8b5cf6"/><stop offset="1" stop-color="#a855f7"/></linearGradient>
<linearGradient id="card" x1="0" y1="0" x2="0" y2="1"><stop offset="0" stop-color="#1a1530" stop-opacity=".8"/><stop offset="1" stop-color="#0f0b22" stop-opacity=".8"/></linearGradient>
<linearGradient id="album" x1="0" y1="0" x2="1" y2="1"><stop offset="0" stop-color="#ec4899"/><stop offset=".5" stop-color="#a855f7"/><stop offset="1" stop-color="#6366f1"/></linearGradient>
<radialGradient id="albumGlow" cx=".5" cy=".5" r=".5"><stop offset="0" stop-color="#ec4899" stop-opacity=".5"/><stop offset="1" stop-color="#ec4899" stop-opacity="0"/></radialGradient>
</defs>
<rect width="1280" height="800" fill="url(#bg)"/>
<rect width="1280" height="40" fill="#0d0820"/>
<circle cx="20" cy="20" r="6" fill="#ef4444"/><circle cx="40" cy="20" r="6" fill="#eab308"/><circle cx="60" cy="20" r="6" fill="#22c55e"/>
<text x="640" y="26" font-family="-apple-system, sans-serif" font-size="13" fill="#71717a" text-anchor="middle">ZenDownload - Music</text>

<rect x="0" y="40" width="240" height="760" fill="#0d0820"/>
<rect x="239" y="40" width="1" height="760" fill="#1f1838"/>
<g transform="translate(20,60)"><rect width="32" height="32" rx="8" fill="url(#brand)"/><text x="44" y="22" font-family="-apple-system, sans-serif" font-size="15" font-weight="700" fill="#e4e4e7">ZenDownload</text></g>

<g font-family="-apple-system, sans-serif" font-size="13" fill="#a1a1aa">
<text x="60" y="143">Downloads</text>
<text x="60" y="183">Torrents</text>
<text x="60" y="223">Videos</text>
<g transform="translate(28,258)"><rect x="-16" y="-18" width="216" height="36" rx="8" fill="url(#brand)" opacity=".15"/><rect x="-16" y="-18" width="3" height="36" rx="2" fill="url(#brand)"/></g>
<text x="60" y="263" fill="#e4e4e7" font-weight="600">Music</text>
<text x="60" y="303">Subscriptions</text>
</g>

<g transform="translate(264,64)">
<text font-family="-apple-system, sans-serif" font-size="26" font-weight="800" fill="#fafafa">Music Downloader</text>
<text y="24" font-family="-apple-system, sans-serif" font-size="13" fill="#a1a1aa">Search YouTube and SoundCloud - download with full ID3 metadata</text>

<g transform="translate(0,54)">
<rect width="980" height="60" rx="12" fill="url(#card)" stroke="#1f1838"/>
<circle cx="32" cy="30" r="10" stroke="#71717a" stroke-width="2" fill="none"/>
<line x1="40" y1="38" x2="48" y2="46" stroke="#71717a" stroke-width="2" stroke-linecap="round"/>
<input-placeholder/>
<text x="56" y="36" font-family="-apple-system, sans-serif" font-size="14" fill="#71717a">Search artists, songs, albums...</text>
<g transform="translate(720,16)">
<rect width="80" height="28" rx="6" fill="url(#brand)"/>
<text x="40" y="18" text-anchor="middle" font-family="-apple-system, sans-serif" font-size="12" fill="white" font-weight="600">YouTube</text>
<rect x="88" width="80" height="28" rx="6" fill="#0d0820"/>
<text x="128" y="18" text-anchor="middle" font-family="-apple-system, sans-serif" font-size="12" fill="#a1a1aa">SoundCloud</text>
<rect x="176" width="80" height="28" rx="6" fill="#0d0820"/>
<text x="216" y="18" text-anchor="middle" font-family="-apple-system, sans-serif" font-size="12" fill="#a1a1aa">Spotify</text>
</g>
</g>

<g transform="translate(0,134)">
<rect width="380" height="380" rx="12" fill="url(#album)"/>
<rect width="380" height="380" rx="12" fill="url(#albumGlow)"/>
<g transform="translate(190,180)">
<circle r="120" fill="rgba(0,0,0,.3)"/>
<circle r="14" fill="#0a0814"/>
<circle r="6" fill="#ec4899"/>
</g>
<text x="190" y="332" text-anchor="middle" font-family="-apple-system, sans-serif" font-size="22" font-weight="800" fill="white">Midnight City</text>
<text x="190" y="354" text-anchor="middle" font-family="-apple-system, sans-serif" font-size="13" fill="rgba(255,255,255,.7)">M83 - Hurry Up, We're Dreaming</text>
</g>

<g transform="translate(400,134)">
<text font-family="-apple-system, sans-serif" font-size="16" font-weight="700" fill="#fafafa">Results</text>
<text x="580" y="0" text-anchor="end" font-family="-apple-system, sans-serif" font-size="12" fill="#71717a">42 results - sorted by relevance</text>

<g font-family="-apple-system, sans-serif">
<g transform="translate(0,16)">
<rect width="580" height="68" rx="10" fill="url(#card)" stroke="#1f1838"/>
<rect x="12" y="12" width="44" height="44" rx="6" fill="url(#album)"/>
<text x="68" y="32" font-size="13" font-weight="600" fill="#fafafa">Midnight City</text>
<text x="68" y="50" font-size="11" fill="#a1a1aa">M83 - Hurry Up, We're Dreaming (2011)</text>
<text x="68" y="62" font-size="10" fill="#71717a">4:03 - 320 kbps - 9.4 MB</text>
<rect x="470" y="20" width="98" height="28" rx="6" fill="url(#brand)"/>
<text x="519" y="38" text-anchor="middle" font-size="11" fill="white" font-weight="600">Download</text>
</g>
<g transform="translate(0,92)">
<rect width="580" height="68" rx="10" fill="url(#card)" stroke="#1f1838"/>
<rect x="12" y="12" width="44" height="44" rx="6" fill="#6366f1"/>
<text x="68" y="32" font-size="13" font-weight="600" fill="#fafafa">Midnight City (Live)</text>
<text x="68" y="50" font-size="11" fill="#a1a1aa">M83 - Live at Coachella</text>
<text x="68" y="62" font-size="10" fill="#71717a">5:24 - 256 kbps - 11.2 MB</text>
<rect x="470" y="20" width="98" height="28" rx="6" fill="url(#brand)"/>
<text x="519" y="38" text-anchor="middle" font-size="11" fill="white" font-weight="600">Download</text>
</g>
<g transform="translate(0,168)">
<rect width="580" height="68" rx="10" fill="url(#card)" stroke="#1f1838"/>
<rect x="12" y="12" width="44" height="44" rx="6" fill="#0ea5e9"/>
<text x="68" y="32" font-size="13" font-weight="600" fill="#fafafa">Midnight City (Remix)</text>
<text x="68" y="50" font-size="11" fill="#a1a1aa">Big Gigantic Remix</text>
<text x="68" y="62" font-size="10" fill="#71717a">3:48 - FLAC - 28.4 MB</text>
<rect x="470" y="20" width="98" height="28" rx="6" fill="#22c55e"/>
<text x="519" y="38" text-anchor="middle" font-size="11" fill="white" font-weight="600">Downloaded</text>
</g>
<g transform="translate(0,244)">
<rect width="580" height="68" rx="10" fill="url(#card)" stroke="#1f1838"/>
<rect x="12" y="12" width="44" height="44" rx="6" fill="#f59e0b"/>
<text x="68" y="32" font-size="13" font-weight="600" fill="#fafafa">Midnight City (Acoustic)</text>
<text x="68" y="50" font-size="11" fill="#a1a1aa">Tyler Ward Cover</text>
<text x="68" y="62" font-size="10" fill="#71717a">3:12 - 192 kbps - 4.8 MB</text>
<rect x="470" y="20" width="98" height="28" rx="6" fill="url(#brand)"/>
<text x="519" y="38" text-anchor="middle" font-size="11" fill="white" font-weight="600">Download</text>
</g>
</g>
</g>

<g transform="translate(0,540)">
<rect width="980" height="180" rx="12" fill="url(#card)" stroke="#1f1838"/>
<text x="20" y="34" font-family="-apple-system, sans-serif" font-size="16" font-weight="700" fill="#fafafa">Now Playing</text>
<g transform="translate(20,52)">
<rect width="44" height="44" rx="6" fill="url(#album)"/>
<text x="56" y="20" font-family="-apple-system, sans-serif" font-size="13" font-weight="600" fill="#fafafa">Midnight City - M83</text>
<text x="56" y="36" font-family="-apple-system, sans-serif" font-size="11" fill="#a1a1aa">Album: Hurry Up, We're Dreaming</text>
<g transform="translate(900,12)">
<circle r="16" fill="rgba(255,255,255,.05)" stroke="#71717a"/>
<polygon points="-4,-5 -4,5 5,0" fill="white"/>
</g>
</g>
<rect x="20" y="118" width="940" height="3" rx="2" fill="#0d0820"/>
<rect x="20" y="118" width="582" height="3" rx="2" fill="url(#brand)"/>
<text x="20" y="142" font-family="-apple-system, sans-serif" font-size="11" fill="#71717a">1:48</text>
<text x="960" y="142" text-anchor="end" font-family="-apple-system, sans-serif" font-size="11" fill="#71717a">4:03</text>
<g transform="translate(440,150)">
<rect width="100" height="32" rx="16" fill="url(#brand)"/>
<polygon points="42,11 42,21 54,16" fill="white"/>
<text x="68" y="20" font-family="-apple-system, sans-serif" font-size="12" fill="white" font-weight="600">FLAC</text>
</g>
</g>
</g>
</svg>
