<svg xmlns="http://www.w3.org/2000/svg" viewBox="0 0 1280 800" width="1280" height="800">
<defs>
<linearGradient id="bg" x1="0" y1="0" x2="1" y2="1"><stop offset="0" stop-color="#0a0814"/><stop offset="1" stop-color="#14102a"/></linearGradient>
<linearGradient id="brand" x1="0" y1="0" x2="1" y2="1"><stop offset="0" stop-color="#6366f1"/><stop offset=".5" stop-color="#8b5cf6"/><stop offset="1" stop-color="#a855f7"/></linearGradient>
<linearGradient id="card" x1="0" y1="0" x2="0" y2="1"><stop offset="0" stop-color="#1a1530" stop-opacity=".8"/><stop offset="1" stop-color="#0f0b22" stop-opacity=".8"/></linearGradient>
</defs>
<rect width="1280" height="800" fill="url(#bg)"/>
<rect width="1280" height="40" fill="#0d0820"/>
<circle cx="20" cy="20" r="6" fill="#ef4444"/><circle cx="40" cy="20" r="6" fill="#eab308"/><circle cx="60" cy="20" r="6" fill="#22c55e"/>
<text x="640" y="26" font-family="Arial" font-size="13" fill="#71717a" text-anchor="middle">ZenDownload - Plugin Store</text>

<rect x="0" y="40" width="240" height="760" fill="#0d0820"/>
<rect x="239" y="40" width="1" height="760" fill="#1f1838"/>
<g transform="translate(20,60)"><rect width="32" height="32" rx="8" fill="url(#brand)"/><text x="44" y="22" font-family="Arial" font-size="15" font-weight="700" fill="#e4e4e7">ZenDownload</text></g>

<g font-family="Arial" font-size="13" fill="#a1a1aa">
<text x="60" y="143">Downloads</text>
<text x="60" y="183">Torrents</text>
<text x="60" y="223">Videos</text>
<text x="60" y="263">Music</text>
<text x="60" y="303">Subscriptions</text>
<text x="60" y="343">Speed Test</text>
<line x1="20" y1="380" x2="220" y2="380" stroke="#1f1838"/>
<text x="20" y="408" font-size="11" font-weight="600" fill="#71717a" letter-spacing="1.5">PLUGINS</text>
<rect x="12" y="420" width="216" height="36" rx="8" fill="url(#brand)" opacity=".15"/>
<rect x="12" y="420" width="3" height="36" rx="2" fill="url(#brand)"/>
<text x="60" y="443" fill="#e4e4e7" font-weight="600">Plugin Store</text>
</g>

<g transform="translate(264,64)">
<text font-family="Arial" font-size="26" font-weight="800" fill="#fafafa">Plugin Store</text>
<text y="24" font-family="Arial" font-size="13" fill="#a1a1aa">42 plugins available - extend ZenDownload without forking</text>

<g transform="translate(0,52)">
<rect width="980" height="48" rx="10" fill="url(#card)" stroke="#1f1838"/>
<circle cx="28" cy="24" r="9" stroke="#71717a" stroke-width="2" fill="none"/>
<line x1="35" y1="31" x2="42" y2="38" stroke="#71717a" stroke-width="2" stroke-linecap="round"/>
<text x="48" y="30" font-family="Arial" font-size="13" fill="#71717a">Search plugins...</text>
<g transform="translate(620,12)" font-family="Arial" font-size="12">
<rect width="80" height="24" rx="6" fill="url(#brand)"/>
<text x="40" y="16" text-anchor="middle" fill="white" font-weight="600">All</text>
<text x="110" y="16" fill="#a1a1aa">Notifications</text>
<text x="200" y="16" fill="#a1a1aa">Download</text>
<text x="280" y="16" fill="#a1a1aa">Media</text>
<text x="340" y="16" fill="#a1a1aa">Productivity</text>
</g>
</g>

<g transform="translate(0,116)" font-family="Arial">
<g>
<rect width="316" height="180" rx="12" fill="url(#card)" stroke="#1f1838"/>
<rect x="20" y="20" width="56" height="56" rx="12" fill="#5865f2"/>
<text x="48" y="58" text-anchor="middle" font-size="28" font-weight="800" fill="white">D</text>
<text x="92" y="40" font-size="14" font-weight="700" fill="#fafafa">Discord Notifier</text>
<text x="92" y="58" font-size="11" fill="#71717a">by zen-plugins</text>
<rect x="92" y="68" width="48" height="18" rx="9" fill="#1e1b4b"/>
<text x="116" y="80" text-anchor="middle" font-size="10" fill="#a5b4fc" font-weight="600">v1.2.0</text>
<text x="20" y="106" font-size="11" fill="#a1a1aa">Send download events to Discord</text>
<text x="20" y="122" font-size="11" fill="#a1a1aa">channels via webhooks. Rich</text>
<text x="20" y="138" font-size="11" fill="#a1a1aa">embeds with file thumbnails.</text>
<g transform="translate(20,150)" font-size="10">
<rect width="56" height="20" rx="4" fill="#27202f"/>
<text x="28" y="14" text-anchor="middle" fill="#a1a1aa">webhook</text>
<rect x="64" width="44" height="20" rx="4" fill="#27202f"/>
<text x="86" y="14" text-anchor="middle" fill="#a1a1aa">events</text>
</g>
<rect x="220" y="148" width="80" height="24" rx="6" fill="url(#brand)"/>
<text x="260" y="164" text-anchor="middle" font-size="11" fill="white" font-weight="600">Install</text>
</g>

<g transform="translate(332,0)">
<rect width="316" height="180" rx="12" fill="url(#card)" stroke="#1f1838"/>
<rect x="20" y="20" width="56" height="56" rx="12" fill="#1db954"/>
<circle cx="48" cy="48" r="14" fill="white"/>
<path d="M42 42 v14 a4 4 0 1 1 -4 -4 v-10 z M54 40 v16 a4 4 0 1 1 -4 -4 v-12 z" fill="#1db954" transform="translate(0,-2)"/>
<text x="92" y="40" font-size="14" font-weight="700" fill="#fafafa">Spotify Import</text>
<text x="92" y="58" font-size="11" fill="#71717a">by community</text>
<rect x="92" y="68" width="48" height="18" rx="9" fill="#1e1b4b"/>
<text x="116" y="80" text-anchor="middle" font-size="10" fill="#a5b4fc" font-weight="600">v0.8.4</text>
<text x="20" y="106" font-size="11" fill="#a1a1aa">Import playlists from Spotify</text>
<text x="20" y="122" font-size="11" fill="#a1a1aa">and convert to downloads via</text>
<text x="20" y="138" font-size="11" fill="#a1a1aa">yt-dlp search.</text>
<g transform="translate(20,150)" font-size="10">
<rect width="56" height="20" rx="4" fill="#27202f"/>
<text x="28" y="14" text-anchor="middle" fill="#a1a1aa">music</text>
<rect x="64" width="44" height="20" rx="4" fill="#27202f"/>
<text x="86" y="14" text-anchor="middle" fill="#a1a1aa">search</text>
</g>
<rect x="220" y="148" width="80" height="24" rx="6" fill="#22c55e"/>
<text x="260" y="164" text-anchor="middle" font-size="11" fill="white" font-weight="600">Installed</text>
</g>

<g transform="translate(664,0)">
<rect width="316" height="180" rx="12" fill="url(#card)" stroke="#1f1838"/>
<rect x="20" y="20" width="56" height="56" rx="12" fill="#06b6d4"/>
<path d="M30 50 Q 48 32 66 50 M30 50 L 30 36 M 66 50 L 66 36" stroke="white" stroke-width="3" fill="none" stroke-linecap="round"/>
<text x="92" y="40" font-size="14" font-weight="700" fill="#fafafa">qBittorrent Sync</text>
<text x="92" y="58" font-size="11" fill="#71717a">by poweruser</text>
<rect x="92" y="68" width="48" height="18" rx="9" fill="#1e1b4b"/>
<text x="116" y="80" text-anchor="middle" font-size="10" fill="#a5b4fc" font-weight="600">v2.0.1</text>
<text x="20" y="106" font-size="11" fill="#a1a1aa">Two-way sync with qBittorrent</text>
<text x="20" y="122" font-size="11" fill="#a1a1aa">WebUI. Auto-add magnets,</text>
<text x="20" y="138" font-size="11" fill="#a1a1aa">mirror categories.</text>
<g transform="translate(20,150)" font-size="10">
<rect width="56" height="20" rx="4" fill="#27202f"/>
<text x="28" y="14" text-anchor="middle" fill="#a1a1aa">torrent</text>
<rect x="64" width="44" height="20" rx="4" fill="#27202f"/>
<text x="86" y="14" text-anchor="middle" fill="#a1a1aa">sync</text>
</g>
<rect x="220" y="148" width="80" height="24" rx="6" fill="url(#brand)"/>
<text x="260" y="164" text-anchor="middle" font-size="11" fill="white" font-weight="600">Install</text>
</g>
</g>

<g transform="translate(0,316)" font-family="Arial">
<g>
<rect width="316" height="180" rx="12" fill="url(#card)" stroke="#1f1838"/>
<rect x="20" y="20" width="56" height="56" rx="12" fill="#f59e0b"/>
<text x="48" y="58" text-anchor="middle" font-size="22" font-weight="800" fill="white">RSS</text>
<text x="92" y="40" font-size="14" font-weight="700" fill="#fafafa">RSS Auto-Download</text>
<text x="92" y="58" font-size="11" fill="#71717a">by zen-plugins</text>
<rect x="92" y="68" width="48" height="18" rx="9" fill="#1e1b4b"/>
<text x="116" y="80" text-anchor="middle" font-size="10" fill="#a5b4fc" font-weight="600">v3.1.0</text>
<text x="20" y="106" font-size="11" fill="#a1a1aa">Auto-download new items from</text>
<text x="20" y="122" font-size="11" fill="#a1a1aa">RSS feeds. Smart filters,</text>
<text x="20" y="138" font-size="11" fill="#a1a1aa">duplicate detection.</text>
<g transform="translate(20,150)" font-size="10">
<rect width="40" height="20" rx="4" fill="#27202f"/>
<text x="20" y="14" text-anchor="middle" fill="#a1a1aa">rss</text>
<rect x="48" width="60" height="20" rx="4" fill="#27202f"/>
<text x="78" y="14" text-anchor="middle" fill="#a1a1aa">automation</text>
</g>
<rect x="220" y="148" width="80" height="24" rx="6" fill="url(#brand)"/>
<text x="260" y="164" text-anchor="middle" font-size="11" fill="white" font-weight="600">Install</text>
</g>

<g transform="translate(332,0)">
<rect width="316" height="180" rx="12" fill="url(#card)" stroke="#1f1838"/>
<rect x="20" y="20" width="56" height="56" rx="12" fill="#ef4444"/>
<path d="M28 36 H 68 V 64 H 28 Z M 36 44 H 60 M 36 52 H 60 M 36 58 H 50" stroke="white" stroke-width="2.5" fill="none" stroke-linecap="round"/>
<text x="92" y="40" font-size="14" font-weight="700" fill="#fafafa">Mega.nz Support</text>
<text x="92" y="58" font-size="11" fill="#71717a">by debrid-co</text>
<rect x="92" y="68" width="48" height="18" rx="9" fill="#1e1b4b"/>
<text x="116" y="80" text-anchor="middle" font-size="10" fill="#a5b4fc" font-weight="600">v1.0.7</text>
<text x="20" y="106" font-size="11" fill="#a1a1aa">Download from mega.nz links</text>
<text x="20" y="122" font-size="11" fill="#a1a1aa">with native decryption.</text>
<text x="20" y="138" font-size="11" fill="#a1a1aa">No JS, no browser.</text>
<g transform="translate(20,150)" font-size="10">
<rect width="40" height="20" rx="4" fill="#27202f"/>
<text x="20" y="14" text-anchor="middle" fill="#a1a1aa">cloud</text>
<rect x="48" width="60" height="20" rx="4" fill="#27202f"/>
<text x="78" y="14" text-anchor="middle" fill="#a1a1aa">encrypted</text>
</g>
<rect x="220" y="148" width="80" height="24" rx="6" fill="url(#brand)"/>
<text x="260" y="164" text-anchor="middle" font-size="11" fill="white" font-weight="600">Install</text>
</g>

<g transform="translate(664,0)">
<rect width="316" height="180" rx="12" fill="url(#card)" stroke="#1f1838"/>
<rect x="20" y="20" width="56" height="56" rx="12" fill="#8b5cf6"/>
<circle cx="48" cy="48" r="14" fill="none" stroke="white" stroke-width="2.5"/>
<circle cx="48" cy="48" r="4" fill="white"/>
<text x="92" y="40" font-size="14" font-weight="700" fill="#fafafa">IPTV Browser</text>
<text x="92" y="58" font-size="11" fill="#71717a">by tv-tools</text>
<rect x="92" y="68" width="48" height="18" rx="9" fill="#1e1b4b"/>
<text x="116" y="80" text-anchor="middle" font-size="10" fill="#a5b4fc" font-weight="600">v1.5.2</text>
<text x="20" y="106" font-size="11" fill="#a1a1aa">Browse IPTV playlists with</text>
<text x="20" y="122" font-size="11" fill="#a1a1aa">EPG guide. Record streams</text>
<text x="20" y="138" font-size="11" fill="#a1a1aa">to disk in real-time.</text>
<g transform="translate(20,150)" font-size="10">
<rect width="40" height="20" rx="4" fill="#27202f"/>
<text x="20" y="14" text-anchor="middle" fill="#a1a1aa">iptv</text>
<rect x="48" width="50" height="20" rx="4" fill="#27202f"/>
<text x="78" y="14" text-anchor="middle" fill="#a1a1aa">stream</text>
</g>
<rect x="220" y="148" width="80" height="24" rx="6" fill="url(#brand)"/>
<text x="260" y="164" text-anchor="middle" font-size="11" fill="white" font-weight="600">Install</text>
</g>
</g>
</g>
</svg>
