<svg xmlns="http://www.w3.org/2000/svg" viewBox="0 0 1280 800" width="1280" height="800">
<defs>
<linearGradient id="bg" x1="0" y1="0" x2="1" y2="1"><stop offset="0" stop-color="#0a0814"/><stop offset="1" stop-color="#14102a"/></linearGradient>
<linearGradient id="brand" x1="0" y1="0" x2="1" y2="1"><stop offset="0" stop-color="#6366f1"/><stop offset=".5" stop-color="#8b5cf6"/><stop offset="1" stop-color="#a855f7"/></linearGradient>
<linearGradient id="card" x1="0" y1="0" x2="0" y2="1"><stop offset="0" stop-color="#1a1530" stop-opacity=".8"/><stop offset="1" stop-color="#0f0b22" stop-opacity=".8"/></linearGradient>
</defs>
<rect width="1280" height="800" fill="url(#bg)"/>
<rect width="1280" height="40" fill="#0d0820"/>
<circle cx="20" cy="20" r="6" fill="#ef4444"/><circle cx="40" cy="20" r="6" fill="#eab308"/><circle cx="60" cy="20" r="6" fill="#22c55e"/>
<text x="640" y="26" font-family="Arial" font-size="13" fill="#71717a" text-anchor="middle">ZenDownload - Settings</text>

<rect x="0" y="40" width="240" height="760" fill="#0d0820"/>
<rect x="239" y="40" width="1" height="760" fill="#1f1838"/>
<g transform="translate(20,60)"><rect width="32" height="32" rx="8" fill="url(#brand)"/><text x="44" y="22" font-family="Arial" font-size="15" font-weight="700" fill="#e4e4e7">ZenDownload</text></g>

<g font-family="Arial" font-size="13" fill="#a1a1aa">
<text x="60" y="143">Downloads</text>
<text x="60" y="183">Torrents</text>
<text x="60" y="223">Videos</text>
<text x="60" y="263">Music</text>
<text x="60" y="303">Subscriptions</text>
<text x="60" y="343">Speed Test</text>
<text x="60" y="383">Plugin Store</text>
<text x="60" y="423">Radio</text>
<rect x="12" y="445" width="216" height="36" rx="8" fill="url(#brand)" opacity=".15"/>
<rect x="12" y="445" width="3" height="36" rx="2" fill="url(#brand)"/>
<text x="60" y="468" fill="#e4e4e7" font-weight="600">Settings</text>
</g>

<g transform="translate(264,64)" font-family="Arial">
<text font-size="26" font-weight="800" fill="#fafafa">Settings</text>

<g transform="translate(0,40)">
<rect width="980" height="60" rx="10" fill="url(#card)" stroke="#1f1838"/>
<circle cx="30" cy="30" r="12" stroke="#71717a" stroke-width="2" fill="none"/>
<line x1="38" y1="38" x2="46" y2="46" stroke="#71717a" stroke-width="2" stroke-linecap="round"/>
<text x="56" y="36" font-size="14" fill="#71717a">Search settings...</text>
</g>

<g transform="translate(0,116)">
<rect width="980" height="660" rx="12" fill="url(#card)" stroke="#1f1838"/>

<g transform="translate(20,16)">
<text font-size="14" font-weight="700" fill="#fafafa">Appearance</text>
<text x="940" text-anchor="end" font-size="11" fill="#71717a">Customize how ZenDownload looks</text>
</g>
<line x1="20" y1="48" x2="960" y2="48" stroke="#1f1838"/>

<g transform="translate(20,68)" font-family="Arial" font-size="12">
<text fill="#a1a1aa">Accent color</text>
<text x="940" y="0" text-anchor="end" fill="#71717a">Choose your primary color</text>
</g>
<g transform="translate(20,82)">
<circle cx="14" cy="14" r="14" fill="#6366f1"/><circle cx="14" cy="14" r="17" fill="none" stroke="#6366f1" stroke-width="2"/>
<circle cx="54" cy="14" r="14" fill="#3b82f6"/>
<circle cx="94" cy="14" r="14" fill="#8b5cf6"/>
<circle cx="134" cy="14" r="14" fill="#ec4899"/>
<circle cx="174" cy="14" r="14" fill="#ef4444"/>
<circle cx="214" cy="14" r="14" fill="#f97316"/>
<circle cx="254" cy="14" r="14" fill="#f59e0b"/>
<circle cx="294" cy="14" r="14" fill="#10b981"/>
<circle cx="334" cy="14" r="14" fill="#14b8a6"/>
<circle cx="374" cy="14" r="14" fill="#06b6d4"/>
<circle cx="414" cy="14" r="14" fill="#64748b"/>
<circle cx="454" cy="14" r="14" fill="#71717a"/>
</g>

<g transform="translate(20,140)" font-family="Arial" font-size="12">
<text fill="#a1a1aa">Background density</text>
<text x="940" y="0" text-anchor="end" fill="#71717a">Solid - Glass - Transparent</text>
</g>
<g transform="translate(20,154)">
<rect width="120" height="40" rx="8" fill="url(#brand)"/>
<text x="60" y="25" text-anchor="middle" font-family="Arial" font-size="13" fill="white" font-weight="600">Solid</text>
<rect x="132" width="120" height="40" rx="8" fill="#0d0820"/>
<text x="192" y="25" text-anchor="middle" font-family="Arial" font-size="13" fill="#a1a1aa">Glass</text>
<rect x="264" width="120" height="40" rx="8" fill="#0d0820"/>
<text x="324" y="25" text-anchor="middle" font-family="Arial" font-size="13" fill="#a1a1aa">Transparent</text>
</g>

<g transform="translate(20,212)" font-family="Arial" font-size="12">
<text fill="#a1a1aa">Corner radius</text>
<text x="940" y="0" text-anchor="end" fill="#71717a">Square - Rounded - Pill</text>
</g>
<g transform="translate(20,226)">
<rect width="280" height="6" rx="3" fill="#0d0820"/>
<rect x="0" y="0" width="160" height="6" rx="3" fill="url(#brand)"/>
<circle cx="160" cy="3" r="9" fill="white"/>
<text x="0" y="32" font-size="11" fill="#71717a">Square</text>
<text x="280" y="32" text-anchor="end" font-size="11" fill="#71717a">Fully pill</text>
</g>

<g transform="translate(20,290)" font-family="Arial" font-size="12">
<text fill="#a1a1aa">Font size</text>
</g>
<g transform="translate(20,304)">
<rect width="80" height="36" rx="8" fill="#0d0820"/>
<text x="40" y="23" text-anchor="middle" font-family="Arial" font-size="13" fill="#a1a1aa">Small</text>
<rect x="92" width="80" height="36" rx="8" fill="url(#brand)"/>
<text x="132" y="23" text-anchor="middle" font-family="Arial" font-size="13" fill="white" font-weight="600">Default</text>
<rect x="184" width="80" height="36" rx="8" fill="#0d0820"/>
<text x="224" y="23" text-anchor="middle" font-family="Arial" font-size="13" fill="#a1a1aa">Large</text>
</g>

<line x1="20" y1="370" x2="960" y2="370" stroke="#1f1838"/>

<g transform="translate(20,388)">
<text font-size="14" font-weight="700" fill="#fafafa">Downloads</text>
</g>

<g transform="translate(20,414)" font-family="Arial" font-size="13">
<text fill="#e4e4e7" font-weight="600">Default download folder</text>
<text x="940" y="0" text-anchor="end" fill="#71717a">~/Downloads</text>
<rect x="0" y="14" width="940" height="40" rx="8" fill="#0d0820"/>
<text x="14" y="38" fill="#a1a1aa">~/Downloads/ZenDownload</text>
<text x="926" y="38" text-anchor="end" fill="#a78bfa" font-weight="600">Change</text>
</g>

<g transform="translate(20,480)" font-family="Arial" font-size="13">
<text fill="#e4e4e7" font-weight="600">Max concurrent downloads</text>
<text x="940" y="0" text-anchor="end" fill="#71717a">3 simultaneous</text>
<rect x="0" y="14" width="940" height="6" rx="3" fill="#0d0820"/>
<rect x="0" y="14" width="320" height="6" rx="3" fill="url(#brand)"/>
<circle cx="320" cy="17" r="9" fill="white"/>
</g>

<g transform="translate(20,536)" font-family="Arial" font-size="13">
<text fill="#e4e4e7" font-weight="600">Connections per file</text>
<text x="940" y="0" text-anchor="end" fill="#71717a">8 segments</text>
<rect x="0" y="14" width="940" height="6" rx="3" fill="#0d0820"/>
<rect x="0" y="14" width="640" height="6" rx="3" fill="url(#brand)"/>
<circle cx="640" cy="17" r="9" fill="white"/>
</g>

<g transform="translate(20,592)" font-family="Arial" font-size="13">
<rect width="44" height="24" rx="12" fill="url(#brand)"/>
<circle cx="32" cy="12" r="9" fill="white"/>
<text x="56" y="17" fill="#e4e4e7" font-weight="600">Auto-organize by category</text>
<text x="940" y="17" text-anchor="end" fill="#71717a">Video - Music - Documents</text>
</g>

<g transform="translate(20,624)" font-family="Arial" font-size="13">
<rect width="44" height="24" rx="12" fill="url(#brand)"/>
<circle cx="32" cy="12" r="9" fill="white"/>
<text x="56" y="17" fill="#e4e4e7" font-weight="600">Show notifications on complete</text>
</g>
</g>
</g>
</svg>
