<svg xmlns="http://www.w3.org/2000/svg" viewBox="0 0 1280 800" width="1280" height="800">
<defs>
<linearGradient id="bg" x1="0" y1="0" x2="1" y2="1"><stop offset="0" stop-color="#0a0814"/><stop offset="1" stop-color="#14102a"/></linearGradient>
<linearGradient id="brand" x1="0" y1="0" x2="1" y2="1"><stop offset="0" stop-color="#6366f1"/><stop offset=".5" stop-color="#8b5cf6"/><stop offset="1" stop-color="#a855f7"/></linearGradient>
<linearGradient id="card" x1="0" y1="0" x2="0" y2="1"><stop offset="0" stop-color="#1a1530" stop-opacity=".8"/><stop offset="1" stop-color="#0f0b22" stop-opacity=".8"/></linearGradient>
<linearGradient id="videoBg" x1="0" y1="0" x2="1" y2="1"><stop offset="0" stop-color="#1e1b4b"/><stop offset=".5" stop-color="#4c1d95"/><stop offset="1" stop-color="#831843"/></linearGradient>
<radialGradient id="glow" cx=".5" cy=".5" r=".5"><stop offset="0" stop-color="#a855f7" stop-opacity=".4"/><stop offset="1" stop-color="#a855f7" stop-opacity="0"/></radialGradient>
</defs>
<rect width="1280" height="800" fill="url(#bg)"/>
<rect width="1280" height="40" fill="#0d0820"/>
<circle cx="20" cy="20" r="6" fill="#ef4444"/><circle cx="40" cy="20" r="6" fill="#eab308"/><circle cx="60" cy="20" r="6" fill="#22c55e"/>
<text x="640" y="26" font-family="-apple-system, sans-serif" font-size="13" fill="#71717a" text-anchor="middle">ZenDownload - Torrent Streaming</text>

<rect x="0" y="40" width="240" height="760" fill="#0d0820"/>
<rect x="239" y="40" width="1" height="760" fill="#1f1838"/>
<g transform="translate(20,60)"><rect width="32" height="32" rx="8" fill="url(#brand)"/><text x="44" y="22" font-family="-apple-system, sans-serif" font-size="15" font-weight="700" fill="#e4e4e7">ZenDownload</text></g>

<g font-family="-apple-system, sans-serif" font-size="13" fill="#a1a1aa">
<text x="60" y="143">Downloads</text>
<g transform="translate(28,178)"><rect x="-16" y="-18" width="216" height="36" rx="8" fill="url(#brand)" opacity=".15"/><rect x="-16" y="-18" width="3" height="36" rx="2" fill="url(#brand)"/></g>
<text x="60" y="183" fill="#e4e4e7" font-weight="600">Torrents</text>
<rect x="195" y="167" width="28" height="18" rx="9" fill="#6366f1"/><text x="209" y="180" fill="white" font-size="11" font-weight="700" text-anchor="middle">8</text>
<text x="60" y="223">Videos</text>
<text x="60" y="263">Music</text>
</g>

<g transform="translate(264,64)">
<text font-family="-apple-system, sans-serif" font-size="24" font-weight="800" fill="#fafafa">Big Buck Bunny - 1080p</text>
<text y="24" font-family="-apple-system, sans-serif" font-size="13" fill="#a1a1aa">Blender Foundation - CC-BY 3.0 - 658 MB</text>

<g transform="translate(0,54)">
<rect width="680" height="400" rx="12" fill="url(#videoBg)"/>
<rect width="680" height="400" rx="12" fill="url(#glow)"/>
<g transform="translate(340,180)">
<circle r="80" fill="#fbbf24" opacity=".2"/><circle r="55" fill="#fbbf24" opacity=".35"/>
<text y="-6" text-anchor="middle" font-family="-apple-system, sans-serif" font-size="20" font-weight="800" fill="#fef3c7">BIG BUCK</text>
<text y="20" text-anchor="middle" font-family="-apple-system, sans-serif" font-size="20" font-weight="800" fill="#fef3c7">BUNNY</text>
</g>
<circle cx="340" cy="220" r="44" fill="rgba(0,0,0,.4)"/>
<polygon points="328,200 328,240 360,220" fill="white"/>
<g transform="translate(0,358)">
<rect width="680" height="42" rx="0" fill="rgba(0,0,0,.5)"/>
<rect x="14" y="14" width="652" height="4" rx="2" fill="rgba(255,255,255,.15)"/>
<rect x="14" y="14" width="412" height="4" rx="2" fill="url(#brand)"/>
<circle cx="426" cy="16" r="6" fill="white"/>
<text x="14" y="36" font-family="-apple-system, sans-serif" font-size="11" fill="white">02:34</text>
<text x="666" y="36" font-family="-apple-system, sans-serif" font-size="11" fill="white" text-anchor="end">05:08</text>
</g>
</g>

<g transform="translate(704,54)">
<rect width="276" height="400" rx="12" fill="url(#card)" stroke="#1f1838"/>
<text x="20" y="32" font-family="-apple-system, sans-serif" font-size="14" font-weight="700" fill="#fafafa">Stream Info</text>
<g font-family="-apple-system, sans-serif" font-size="12" fill="#a1a1aa">
<text x="20" y="64">Peers</text><text x="256" y="64" text-anchor="end" fill="#22c55e" font-weight="600">42 / 88</text>
<text x="20" y="88">Seeds</text><text x="256" y="88" text-anchor="end" fill="#e4e4e7" font-weight="600">28</text>
<text x="20" y="112">Leeches</text><text x="256" y="112" text-anchor="end" fill="#e4e4e7" font-weight="600">14</text>
<text x="20" y="136">Down</text><text x="256" y="136" text-anchor="end" fill="#22c55e" font-weight="600">12.4 MB/s</text>
<text x="20" y="160">Up</text><text x="256" y="160" text-anchor="end" fill="#a78bfa" font-weight="600">2.1 MB/s</text>
<text x="20" y="184">Progress</text><text x="256" y="184" text-anchor="end" fill="#e4e4e7" font-weight="600">62%</text>
<rect x="20" y="194" width="236" height="4" rx="2" fill="#0d0820"/>
<rect x="20" y="194" width="146" height="4" rx="2" fill="url(#brand)"/>
<text x="20" y="226">Availability</text><text x="256" y="226" text-anchor="end" fill="#22c55e" font-weight="600">3.4x</text>
<text x="20" y="250">ETA</text><text x="256" y="250" text-anchor="end" fill="#e4e4e7" font-weight="600">28s</text>
</g>
<line x1="20" y1="276" x2="256" y2="276" stroke="#1f1838"/>
<text x="20" y="304" font-family="-apple-system, sans-serif" font-size="14" font-weight="700" fill="#fafafa">Files</text>
<g font-family="-apple-system, sans-serif" font-size="11" fill="#a1a1aa">
<text x="20" y="332">BigBuckBunny_1080p.mkv</text><text x="256" y="332" text-anchor="end">412 MB</text>
<text x="20" y="354">sample.avi</text><text x="256" y="354" text-anchor="end">42 MB</text>
<text x="20" y="376">README.txt</text><text x="256" y="376" text-anchor="end">2 KB</text>
</g>
</g>

<g transform="translate(0,484)">
<rect width="980" height="220" rx="12" fill="url(#card)" stroke="#1f1838"/>
<text x="20" y="34" font-family="-apple-system, sans-serif" font-size="16" font-weight="700" fill="#fafafa">Active Torrents</text>
<g transform="translate(20,52)" font-family="-apple-system, sans-serif" font-size="12">
<rect width="940" height="44" rx="8" fill="#0d0820"/>
<rect x="12" y="10" width="24" height="24" rx="4" fill="url(#brand)"/>
<text x="48" y="22" fill="#e4e4e7" font-weight="600">Big Buck Bunny 1080p</text>
<text x="48" y="36" fill="#71717a">412 MB / 658 MB - 12.4 MB/s - 28s</text>
<rect x="280" y="14" width="500" height="6" rx="3" fill="#0a0814"/>
<rect x="280" y="14" width="310" height="6" rx="3" fill="url(#brand)"/>
<text x="800" y="28" fill="#22c55e" font-weight="600" text-anchor="end">62%</text>
<circle cx="912" cy="22" r="10" fill="none" stroke="#a1a1aa" stroke-width="1.5"/><line x1="912" y1="17" x2="912" y2="27" stroke="#a1a1aa" stroke-width="1.5"/>
</g>
<g transform="translate(20,104)" font-family="-apple-system, sans-serif" font-size="12">
<rect width="940" height="44" rx="8" fill="#0d0820"/>
<rect x="12" y="10" width="24" height="24" rx="4" fill="#16a34a"/>
<text x="48" y="22" fill="#e4e4e7" font-weight="600">Sintel 4K</text>
<text x="48" y="36" fill="#71717a">1.8 GB / 2.1 GB - 8.2 MB/s - 1m 4s</text>
<rect x="280" y="14" width="500" height="6" rx="3" fill="#0a0814"/>
<rect x="280" y="14" width="428" height="6" rx="3" fill="url(#brand)"/>
<text x="800" y="28" fill="#22c55e" font-weight="600" text-anchor="end">86%</text>
</g>
<g transform="translate(20,156)" font-family="-apple-system, sans-serif" font-size="12">
<rect width="940" height="44" rx="8" fill="#0d0820"/>
<rect x="12" y="10" width="24" height="24" rx="4" fill="#0ea5e9"/>
<text x="48" y="22" fill="#e4e4e7" font-weight="600">Tears of Steel</text>
<text x="48" y="36" fill="#eab308">Paused - 124 MB / 512 MB</text>
<rect x="280" y="14" width="500" height="6" rx="3" fill="#0a0814"/>
<rect x="280" y="14" width="120" height="6" rx="3" fill="#eab308"/>
<text x="800" y="28" fill="#eab308" font-weight="600" text-anchor="end">24%</text>
</g>
</g>
</g>
</svg>
